<?xml version="1.0" encoding="utf-8"?>
<!-- Generator: Adobe Illustrator 16.0.0, SVG Export Plug-In . SVG Version: 6.00 Build 0)  -->
<!DOCTYPE svg PUBLIC "-//W3C//DTD SVG 1.1//EN" "http://www.w3.org/Graphics/SVG/1.1/DTD/svg11.dtd">
<svg version="1.1" id="Layer_1" xmlns="http://www.w3.org/2000/svg" xmlns:xlink="http://www.w3.org/1999/xlink" x="0px" y="0px"
	 width="30px" height="24px" viewBox="0 0 30 24" enable-background="new 0 0 30 24" xml:space="preserve">
<path fill="#EB2429" d="M18.172,0.983L29.11,0l0.72,7.671c0.288,3.101,0.241,5.581-0.148,7.416c-0.394,1.85-1.271,3.551-2.646,5.108
	c-1.374,1.558-3.187,2.855-5.446,3.877l-2.558-4.235c2.115-0.91,3.586-2.042,4.418-3.4c0.826-1.35,1.168-3.094,1.02-5.207
	l-5.295,0.477L18.172,0.983z M0.9,0.483h10.986v7.703c0,3.142-0.28,5.604-0.844,7.395c-0.559,1.788-1.597,3.399-3.126,4.827
	c-1.52,1.429-3.442,2.558-5.765,3.373L0,19.335c2.188-0.717,3.76-1.712,4.709-2.989c0.955-1.272,1.452-2.978,1.508-5.095H0.9V0.483z
	"/>
</svg>
