<?xml version="1.0" encoding="utf-8"?>
<!-- Generator: Adobe Illustrator 16.0.0, SVG Export Plug-In . SVG Version: 6.00 Build 0)  -->
<!DOCTYPE svg PUBLIC "-//W3C//DTD SVG 1.1//EN" "http://www.w3.org/Graphics/SVG/1.1/DTD/svg11.dtd">
<svg version="1.1" id="Layer_1" xmlns="http://www.w3.org/2000/svg" xmlns:xlink="http://www.w3.org/1999/xlink" x="0px" y="0px"
	 width="25px" height="25px" viewBox="0 0 25 25" enable-background="new 0 0 25 25" xml:space="preserve">
<g>
	<circle fill="#D22428" cx="12.501" cy="12.5" r="12.435"/>
	<path fill="#FFFFFF" d="M16.946,15.385h-0.801l0.005-0.468c0-0.207,0.169-0.374,0.378-0.374h0.051c0.206,0,0.377,0.167,0.377,0.374
		L16.946,15.385z M13.939,14.385c-0.202,0-0.37,0.139-0.37,0.304v2.266c0,0.167,0.168,0.304,0.37,0.304
		c0.204,0,0.372-0.137,0.372-0.304v-2.266C14.312,14.523,14.144,14.385,13.939,14.385z M18.825,13.119v4.31
		c0,1.031-0.898,1.878-1.993,1.878h-8.19c-1.097,0-1.993-0.847-1.993-1.878v-4.31c0-1.034,0.896-1.88,1.993-1.88h8.19
		C17.927,11.239,18.825,12.085,18.825,13.119z M9.188,17.896v-4.538h1.014v-0.673l-2.706-0.005v0.661l0.845,0.003v4.553H9.188
		L9.188,17.896z M12.231,14.031h-0.847v2.424c0,0.353,0.022,0.528,0,0.589c-0.071,0.187-0.379,0.388-0.499,0.02
		c-0.022-0.063-0.002-0.258-0.005-0.592l-0.002-2.44h-0.842l0.002,2.405c0,0.366-0.007,0.642,0.002,0.766
		c0.022,0.219,0.015,0.477,0.219,0.623c0.38,0.275,1.109-0.042,1.292-0.434v0.501h0.679V14.031L12.231,14.031z M14.939,16.808
		l-0.003-2.018c0-0.769-0.574-1.229-1.355-0.607l0.003-1.499l-0.844,0.002l-0.005,5.175l0.696-0.01l0.063-0.323
		C14.382,18.343,14.941,17.785,14.939,16.808z M17.589,16.541l-0.635,0.005c0,0.023,0,0.053-0.003,0.085v0.355
		c0,0.187-0.155,0.343-0.346,0.343h-0.124c-0.191,0-0.348-0.156-0.348-0.343v-0.042v-0.39v-0.501h1.452v-0.548
		c0-0.4-0.01-0.801-0.04-1.029c-0.105-0.722-1.12-0.836-1.634-0.467c-0.16,0.116-0.284,0.271-0.355,0.479
		c-0.072,0.206-0.106,0.491-0.106,0.851v1.203C15.45,18.543,17.879,18.261,17.589,16.541z M14.333,10.01
		c0.044,0.107,0.11,0.192,0.203,0.258c0.092,0.063,0.209,0.097,0.348,0.097c0.121,0,0.228-0.034,0.323-0.102
		c0.095-0.068,0.173-0.168,0.238-0.304l-0.017,0.333h0.943V6.28h-0.741v3.122c0,0.17-0.142,0.307-0.312,0.307
		c-0.169,0-0.31-0.136-0.31-0.307V6.28h-0.774v2.706c0,0.345,0.005,0.574,0.015,0.691C14.263,9.793,14.29,9.903,14.333,10.01z
		 M11.474,7.745c0-0.384,0.032-0.687,0.095-0.903c0.063-0.216,0.18-0.389,0.346-0.521c0.168-0.131,0.382-0.197,0.642-0.197
		c0.217,0,0.404,0.043,0.562,0.126c0.156,0.085,0.277,0.195,0.36,0.329c0.085,0.136,0.144,0.275,0.176,0.418
		C13.686,7.141,13.7,7.36,13.7,7.654v1.015c0,0.372-0.015,0.647-0.043,0.82c-0.026,0.175-0.091,0.336-0.186,0.487
		s-0.216,0.263-0.362,0.335c-0.15,0.071-0.318,0.107-0.513,0.107c-0.214,0-0.397-0.029-0.545-0.092
		c-0.148-0.061-0.265-0.153-0.348-0.277c-0.083-0.124-0.141-0.275-0.175-0.45c-0.037-0.175-0.054-0.44-0.054-0.79V7.745
		L11.474,7.745z M12.211,9.338c0,0.229,0.17,0.414,0.377,0.414c0.205,0,0.375-0.185,0.375-0.414V7.202
		c0-0.226-0.17-0.411-0.375-0.411c-0.207,0-0.377,0.185-0.377,0.411V9.338z M9.601,10.418h0.891V7.34l1.054-2.638h-0.976
		l-0.557,1.959L9.445,4.698H8.481L9.601,7.34V10.418z"/>
</g>
</svg>
