<?xml version="1.0" encoding="utf-8"?>
<!-- Generator: Adobe Illustrator 16.0.0, SVG Export Plug-In . SVG Version: 6.00 Build 0)  -->
<!DOCTYPE svg PUBLIC "-//W3C//DTD SVG 1.1//EN" "http://www.w3.org/Graphics/SVG/1.1/DTD/svg11.dtd">
<svg version="1.1" id="Layer_1" xmlns="http://www.w3.org/2000/svg" xmlns:xlink="http://www.w3.org/1999/xlink" x="0px" y="0px"
	 width="80px" height="80px" viewBox="0 0 80 80" enable-background="new 0 0 80 80" xml:space="preserve">
<g>
	<path fill="#EC1F27" d="M40,0C17.944,0,0,17.944,0,40c0,22.056,17.944,40,40,40c22.056,0,40-17.944,40-40C80,17.944,62.056,0,40,0z
		 M40,77.333C19.414,77.333,2.667,60.586,2.667,40C2.667,19.415,19.414,2.667,40,2.667S77.333,19.415,77.333,40
		C77.333,60.586,60.586,77.333,40,77.333z"/>
	<path fill="#EC1F27" d="M41.333,34.695V21.172c0-0.737-0.597-1.333-1.333-1.333s-1.333,0.597-1.333,1.333v13.523
		c-1.864,0.485-3.325,1.945-3.81,3.811h-9.523c-0.736,0-1.333,0.596-1.333,1.333c0,0.738,0.598,1.333,1.333,1.333h9.523
		c0.595,2.294,2.667,4,5.143,4c2.941,0,5.333-2.392,5.333-5.333C45.333,37.36,43.628,35.291,41.333,34.695z M40,42.505
		c-1.471,0-2.667-1.195-2.667-2.667c0-1.471,1.195-2.667,2.667-2.667c1.472,0,2.667,1.196,2.667,2.667
		C42.667,41.31,41.472,42.505,40,42.505z"/>
	<path fill="#EC1F27" d="M40,13.172c0.736,0,1.333-0.596,1.333-1.333v-1.333c0-0.737-0.597-1.333-1.333-1.333
		s-1.333,0.596-1.333,1.333v1.333C38.667,12.576,39.264,13.172,40,13.172z"/>
	<path fill="#EC1F27" d="M40,66.505c-0.736,0-1.333,0.597-1.333,1.334v1.333c0,0.737,0.598,1.333,1.333,1.333
		s1.333-0.596,1.333-1.333v-1.333C41.333,67.102,40.736,66.505,40,66.505z"/>
	<path fill="#EC1F27" d="M69.333,38.505H68c-0.735,0-1.333,0.596-1.333,1.333c0,0.738,0.598,1.333,1.333,1.333h1.333
		c0.736,0,1.334-0.596,1.334-1.333C70.667,39.102,70.069,38.505,69.333,38.505z"/>
	<path fill="#EC1F27" d="M12,38.505h-1.333c-0.735,0-1.333,0.596-1.333,1.333c0,0.738,0.598,1.333,1.333,1.333H12
		c0.736,0,1.333-0.596,1.333-1.333C13.333,39.102,12.736,38.505,12,38.505z"/>
	<path fill="#EC1F27" d="M59.8,18.154l-0.943,0.942c-0.521,0.521-0.521,1.365,0,1.885c0.26,0.261,0.601,0.391,0.943,0.391
		c0.341,0,0.682-0.13,0.942-0.391l0.942-0.942c0.521-0.521,0.521-1.364,0-1.885C61.163,17.632,60.32,17.633,59.8,18.154z"/>
	<path fill="#EC1F27" d="M19.258,58.695l-0.943,0.942c-0.521,0.521-0.521,1.363,0,1.886c0.261,0.259,0.602,0.391,0.943,0.391
		c0.342,0,0.684-0.132,0.943-0.391l0.942-0.942c0.522-0.522,0.522-1.365,0-1.886C20.623,58.173,19.779,58.175,19.258,58.695z"/>
	<path fill="#EC1F27" d="M60.742,58.695c-0.522-0.522-1.364-0.522-1.886,0c-0.521,0.521-0.521,1.363,0,1.886l0.943,0.942
		c0.259,0.259,0.6,0.391,0.942,0.391c0.341,0,0.683-0.132,0.942-0.391c0.521-0.522,0.521-1.364,0-1.886L60.742,58.695z"/>
	<path fill="#EC1F27" d="M20.201,18.154c-0.521-0.521-1.363-0.521-1.886,0c-0.521,0.521-0.521,1.364,0,1.885l0.943,0.942
		c0.26,0.261,0.602,0.391,0.943,0.391c0.342,0,0.684-0.13,0.942-0.391c0.522-0.521,0.522-1.364,0-1.885L20.201,18.154z"/>
</g>
</svg>
