<?xml version="1.0" encoding="utf-8"?>
<!-- Generator: Adobe Illustrator 16.0.0, SVG Export Plug-In . SVG Version: 6.00 Build 0)  -->
<!DOCTYPE svg PUBLIC "-//W3C//DTD SVG 1.1//EN" "http://www.w3.org/Graphics/SVG/1.1/DTD/svg11.dtd">
<svg version="1.1" id="Layer_1" xmlns="http://www.w3.org/2000/svg" xmlns:xlink="http://www.w3.org/1999/xlink" x="0px" y="0px"
	 width="80px" height="80px" viewBox="0 0 80 80" enable-background="new 0 0 80 80" xml:space="preserve">
<g>
	<g>
		<g>
			<path fill="#EC1F27" d="M76.532,35.227c-0.914-1.3-2.108-2.377-3.497-3.153c2.959-5.041,1.27-11.525-3.771-14.482
				c-1.271-0.745-2.683-1.217-4.145-1.385c-0.638-5.336-5.158-9.355-10.531-9.363c-0.041,0-0.078,0.008-0.119,0.008
				c-0.721-4.33-4.815-7.253-9.145-6.532c-2.18,0.363-4.108,1.617-5.326,3.46c-2.419-3.662-7.349-4.669-11.011-2.25
				c-1.861,1.23-3.12,3.186-3.47,5.39c-4.85,0.568-8.688,4.37-9.3,9.214c-0.031,0-0.062-0.006-0.092-0.006
				c-5.86-0.001-10.612,4.748-10.612,10.608c-0.001,1.114,0.173,2.222,0.519,3.282C3.216,32,1.54,35.229,1.537,38.673
				c0.01,3.84,2.084,7.376,5.43,9.26c-2.955,5.043-1.262,11.526,3.782,14.48c1.266,0.741,2.672,1.213,4.129,1.381
				c0.637,5.335,5.158,9.354,10.53,9.363c0.042,0,0.079-0.009,0.119-0.009c0.722,4.33,4.816,7.255,9.145,6.533
				c2.18-0.364,4.108-1.618,5.326-3.461c2.419,3.663,7.349,4.669,11.011,2.251c1.861-1.23,3.12-3.187,3.47-5.391
				c4.847-0.567,8.684-4.365,9.3-9.208c0.031,0,0.062,0.006,0.092,0.006c5.86,0.003,10.612-4.748,10.612-10.607
				c0-1.114-0.174-2.222-0.52-3.282C78.75,46.623,79.9,40.012,76.532,35.227z M67.851,49.284v2.653
				c1.268-0.003,2.527-0.234,3.714-0.686c1.125,4.231-1.393,8.576-5.624,9.703c-0.677,0.179-1.371,0.268-2.069,0.266
				c-0.026,0-0.056,0-0.084,0c-0.391-3.19-2.216-6.027-4.955-7.709l-1.395,2.254c3.741,2.309,4.901,7.212,2.594,10.952
				c-1.227,1.987-3.267,3.338-5.576,3.688c-0.317-1.739-1.203-3.323-2.52-4.504l-1.77,1.977c2.185,1.953,2.372,5.307,0.419,7.492
				c-1.952,2.184-5.307,2.371-7.491,0.418c-1.126-1.006-1.771-2.446-1.769-3.959v-2.651h-2.653v2.651
				c0,2.93-2.375,5.305-5.306,5.305c-2.93,0-5.305-2.375-5.305-5.305c0-1.669,0.788-3.241,2.123-4.244l-1.592-2.121
				c-1.63,1.219-2.727,3.021-3.058,5.03c-0.041,0-0.082,0.008-0.123,0.008c-3.919-0.004-7.252-2.86-7.854-6.733
				c0.542-0.071,1.077-0.183,1.601-0.336l-0.756-2.544c-4.212,1.254-8.643-1.146-9.896-5.358c-1.253-4.213,1.146-8.643,5.359-9.896
				c0.734-0.219,1.496-0.33,2.261-0.33c1.18-0.003,2.346,0.259,3.411,0.764l1.137-2.394c-4.061-1.927-8.895-1.083-12.062,2.106
				c-3.934-1.945-5.544-6.712-3.598-10.645c1.34-2.713,4.107-4.427,7.134-4.422v-2.653c-1.27,0.002-2.528,0.234-3.715,0.685
				c-1.125-4.232,1.393-8.576,5.625-9.702c0.675-0.18,1.369-0.269,2.067-0.266c0.027,0,0.056,0,0.084,0
				c0.391,3.19,2.216,6.027,4.956,7.708l1.394-2.254c-3.739-2.308-4.901-7.211-2.593-10.951c1.228-1.989,3.267-3.338,5.576-3.689
				c0.317,1.739,1.204,3.324,2.52,4.503l1.769-1.977c-2.184-1.953-2.37-5.307-0.418-7.491c1.952-2.184,5.307-2.372,7.49-0.419
				c1.127,1.007,1.771,2.447,1.77,3.959v2.652h2.653V8.169c0-2.93,2.375-5.305,5.305-5.305c2.931,0,5.306,2.375,5.306,5.305
				c0,1.669-0.787,3.242-2.121,4.244l1.59,2.122c1.631-1.219,2.727-3.021,3.06-5.03c0.04,0,0.082-0.009,0.122-0.009
				c3.919,0.004,7.253,2.862,7.854,6.735c-0.542,0.071-1.076,0.183-1.602,0.335l0.757,2.544c4.212-1.253,8.644,1.146,9.896,5.358
				c1.254,4.213-1.145,8.644-5.358,9.896c-0.734,0.219-1.496,0.33-2.262,0.33c-1.18,0.003-2.344-0.258-3.41-0.765l-1.137,2.395
				c4.061,1.926,8.895,1.082,12.061-2.106c3.935,1.946,5.544,6.711,3.6,10.645C73.643,47.574,70.876,49.29,67.851,49.284z"/>
		</g>
	</g>
	<g>
		<g>
			<path fill="#EC1F27" d="M36.02,22.112c-4.767,1.691-7.953,6.198-7.958,11.256h2.652c0.005-3.932,2.484-7.437,6.189-8.754
				L36.02,22.112z"/>
		</g>
	</g>
	<g>
		<g>
			<path fill="#EC1F27" d="M38.672,21.504l0.29,2.636c0.688-0.076,1.382-0.076,2.07,0l0.293-2.636
				C40.444,21.407,39.553,21.407,38.672,21.504z"/>
		</g>
	</g>
	<g>
		<g>
			<path fill="#EC1F27" d="M54.527,24.069c-5.128-8.024-15.789-10.373-23.813-5.245c-8.022,5.127-10.372,15.789-5.244,23.812
				c1.347,2.109,3.137,3.899,5.244,5.246v2.972c-2.057,0.712-3.147,2.955-2.435,5.014c0.176,0.509,0.454,0.977,0.817,1.374
				c-1.474,1.617-1.358,4.122,0.258,5.596c0.733,0.671,1.693,1.039,2.687,1.035h15.917c2.188,0.009,3.968-1.755,3.979-3.944
				c0.004-0.993-0.365-1.953-1.035-2.687c1.471-1.605,1.361-4.1-0.244-5.569c-0.396-0.364-0.865-0.643-1.373-0.818v-2.972
				C57.306,42.754,59.655,32.093,54.527,24.069z M47.957,61.221H32.041c-0.732,0-1.327-0.595-1.327-1.327
				c0-0.731,0.595-1.326,1.327-1.326h15.917c0.731,0,1.326,0.595,1.326,1.326C49.283,60.626,48.689,61.221,47.957,61.221z
				 M47.957,55.916H32.041c-0.732,0-1.327-0.595-1.327-1.326c0-0.733,0.595-1.326,1.327-1.326h15.917
				c0.731,0,1.326,0.593,1.326,1.326C49.283,55.321,48.689,55.916,47.957,55.916z M47.293,45.99
				c-0.41,0.237-0.663,0.675-0.663,1.147v3.473h-5.305v-7.408l4.916-4.917l-1.875-1.876l-4.368,4.368l-4.368-4.368l-1.875,1.876
				l4.917,4.917v7.408h-5.306v-3.473c0-0.473-0.252-0.91-0.663-1.147c-6.975-4.024-9.367-12.94-5.344-19.916
				c2.606-4.517,7.424-7.298,12.639-7.295c8.054-0.005,14.584,6.52,14.589,14.572C54.591,38.565,51.809,43.386,47.293,45.99z"/>
		</g>
	</g>
</g>
</svg>
