<?xml version="1.0" encoding="utf-8"?>
<!-- Generator: Adobe Illustrator 16.0.0, SVG Export Plug-In . SVG Version: 6.00 Build 0)  -->
<!DOCTYPE svg PUBLIC "-//W3C//DTD SVG 1.1//EN" "http://www.w3.org/Graphics/SVG/1.1/DTD/svg11.dtd">
<svg version="1.1" id="Layer_1" xmlns="http://www.w3.org/2000/svg" xmlns:xlink="http://www.w3.org/1999/xlink" x="0px" y="0px"
	 width="60px" height="60px" viewBox="0 0 60 60" enable-background="new 0 0 60 60" xml:space="preserve">
<g>
	<path fill="#EC1F27" d="M42.58,0H17.42c-2.668,0-4.84,2.171-4.84,4.839v50.322c0,2.668,2.172,4.839,4.84,4.839h25.16
		c2.668,0,4.84-2.171,4.84-4.839V4.839C47.42,2.171,45.248,0,42.58,0z M45.484,55.161c0,1.601-1.303,2.903-2.904,2.903H17.42
		c-1.602,0-2.904-1.303-2.904-2.903v-2.903h30.969V55.161z M45.484,50.322H14.516V9.677h30.969V50.322z M45.484,7.742H14.516V4.839
		c0-1.601,1.303-2.903,2.904-2.903h25.16c1.602,0,2.904,1.303,2.904,2.903V7.742z"/>
	<rect x="26.129" y="54.193" fill="#EC1F27" width="7.742" height="1.936"/>
	<path fill="#EC1F27" d="M30,43.549c7.471,0,13.549-6.078,13.549-13.549S37.471,16.452,30,16.452S16.451,22.529,16.451,30
		S22.529,43.549,30,43.549z M32.717,41.279c0.933-1.102,1.982-2.645,2.785-4.626c1.352,0.448,2.315,0.98,2.891,1.353
		C36.878,39.592,34.92,40.748,32.717,41.279z M39.624,23.508c1.085,1.602,1.771,3.491,1.94,5.524h-1.887v1.936h1.886
		c-0.169,2.034-0.855,3.923-1.94,5.524c-0.678-0.459-1.844-1.13-3.5-1.68c0.322-1.161,0.538-2.444,0.609-3.845h1.01v-1.936h-1.009
		c-0.072-1.401-0.288-2.684-0.609-3.845C37.781,24.638,38.947,23.967,39.624,23.508z M38.393,21.996
		c-0.576,0.372-1.539,0.903-2.891,1.352c-0.803-1.983-1.853-3.525-2.785-4.626C34.92,19.252,36.878,20.408,38.393,21.996z
		 M30.968,19.655c0.843,0.938,1.866,2.324,2.652,4.185c-0.798,0.16-1.68,0.279-2.652,0.328V19.655z M30.968,26.102
		c1.214-0.053,2.31-0.201,3.288-0.411c0.279,1.011,0.473,2.124,0.543,3.342h-3.831V26.102z M30.968,30.968h3.831
		c-0.069,1.218-0.264,2.331-0.543,3.342c-0.979-0.21-2.074-0.358-3.288-0.411V30.968z M30.968,35.832
		C31.94,35.881,32.822,36,33.62,36.16c-0.786,1.862-1.811,3.248-2.652,4.186V35.832z M21.607,38.004
		c0.576-0.371,1.539-0.902,2.891-1.352c0.803,1.982,1.853,3.525,2.785,4.626C25.08,40.748,23.122,39.592,21.607,38.004z
		 M29.032,40.346c-0.843-0.938-1.866-2.324-2.652-4.186c0.798-0.16,1.68-0.279,2.652-0.328V40.346z M29.032,33.898
		c-1.214,0.053-2.31,0.201-3.288,0.411c-0.279-1.011-0.473-2.124-0.543-3.342h3.831V33.898z M29.032,29.032h-3.831
		c0.069-1.218,0.264-2.331,0.543-3.342c0.979,0.21,2.074,0.358,3.288,0.411V29.032z M29.032,24.168
		C28.06,24.119,27.178,24,26.38,23.84c0.786-1.862,1.811-3.248,2.652-4.186V24.168z M27.283,18.721
		c-0.933,1.101-1.982,2.644-2.785,4.625c-1.352-0.448-2.315-0.98-2.891-1.352C23.122,20.408,25.08,19.252,27.283,18.721z
		 M20.377,23.508c0.678,0.459,1.844,1.13,3.5,1.68c-0.323,1.161-0.539,2.443-0.61,3.845h-4.83
		C18.605,26.998,19.292,25.109,20.377,23.508z M18.436,30.968h4.831c0.072,1.401,0.288,2.684,0.609,3.845
		c-1.657,0.55-2.823,1.221-3.5,1.68C19.291,34.891,18.605,33.001,18.436,30.968z"/>
	<path fill="#EC1F27" d="M9.974,25.432L8.78,23.908c-1.89,1.48-2.974,3.701-2.974,6.092s1.084,4.611,2.974,6.092l1.193-1.523
		C8.556,33.457,7.742,31.793,7.742,30S8.556,26.543,9.974,25.432z"/>
	<path fill="#EC1F27" d="M1.936,30c0-3.584,1.627-6.916,4.463-9.136L5.205,19.34C1.896,21.931,0,25.817,0,30
		s1.896,8.068,5.205,10.66l1.193-1.523C3.562,36.916,1.936,33.584,1.936,30z"/>
	<path fill="#EC1F27" d="M51.22,23.908l-1.193,1.523c1.418,1.111,2.231,2.775,2.231,4.568s-0.813,3.457-2.231,4.568l1.193,1.523
		c1.89-1.48,2.974-3.701,2.974-6.092S53.109,25.389,51.22,23.908z"/>
	<path fill="#EC1F27" d="M54.795,19.339l-1.193,1.523c2.836,2.221,4.463,5.553,4.463,9.137s-1.627,6.916-4.463,9.137l1.193,1.523
		C58.104,38.068,60,34.183,60,30S58.104,21.931,54.795,19.339z"/>
	<rect x="17.42" y="46.451" fill="#EC1F27" width="21.289" height="1.936"/>
	<rect x="40.645" y="46.451" fill="#EC1F27" width="1.936" height="1.936"/>
</g>
</svg>
