<?xml version="1.0" encoding="utf-8"?>
<!-- Generator: Adobe Illustrator 16.0.0, SVG Export Plug-In . SVG Version: 6.00 Build 0)  -->
<!DOCTYPE svg PUBLIC "-//W3C//DTD SVG 1.1//EN" "http://www.w3.org/Graphics/SVG/1.1/DTD/svg11.dtd">
<svg version="1.1" id="Layer_1" xmlns="http://www.w3.org/2000/svg" xmlns:xlink="http://www.w3.org/1999/xlink" x="0px" y="0px"
	 width="80px" height="80px" viewBox="0 0 80 80" enable-background="new 0 0 80 80" xml:space="preserve">
<g>
	<path fill="#EC1F27" d="M78.803,15.047H11.191c-0.65,0-1.174,0.525-1.174,1.174v8.842H1.174C0.526,25.063,0,25.588,0,26.238v52.588
		C0,79.473,0.526,80,1.174,80h67.612c0.649,0,1.176-0.527,1.176-1.174v-8.844h8.841c0.647,0,1.175-0.525,1.175-1.176V16.221
		C79.978,15.572,79.45,15.047,78.803,15.047z M2.349,77.651V65.356l15.055-16.22L34.15,65.883c0.452,0.451,1.207,0.451,1.66,0
		L60.022,41.67l7.591,7.59v28.392H2.349z M77.629,67.636h-7.667V26.238c0-0.649-0.526-1.174-1.176-1.174H55.171
		c-0.649,0-1.176,0.525-1.176,1.174c0,0.648,0.526,1.174,1.176,1.174h12.442v18.529l-6.761-6.761c-0.458-0.458-1.203-0.458-1.661,0
		L34.98,63.393L18.203,46.615c-0.464-0.465-1.244-0.451-1.689,0.031L2.349,61.906V27.412h47.108c0.648,0,1.174-0.526,1.174-1.174
		c0-0.649-0.525-1.174-1.174-1.174H12.365v-7.668h65.264V67.636z"/>
	<path fill="#EC1F27" d="M35.225,31.324c-4.098,0-7.434,3.335-7.434,7.434s3.336,7.436,7.434,7.436c4.1,0,7.435-3.337,7.435-7.436
		S39.325,31.324,35.225,31.324z M35.225,43.845c-2.804,0-5.085-2.282-5.085-5.086c0-2.805,2.282-5.087,5.085-5.087
		c2.805,0,5.087,2.282,5.087,5.087C40.312,41.562,38.029,43.845,35.225,43.845z"/>
	<path fill="#EC1F27" d="M79.978,5.144H21.113c-0.65,0-1.174,0.525-1.174,1.174v8.729h2.349V7.492h57.69V5.144z"/>
</g>
</svg>
