<?xml version="1.0" encoding="utf-8"?>
<!-- Generator: Adobe Illustrator 16.0.0, SVG Export Plug-In . SVG Version: 6.00 Build 0)  -->
<!DOCTYPE svg PUBLIC "-//W3C//DTD SVG 1.1//EN" "http://www.w3.org/Graphics/SVG/1.1/DTD/svg11.dtd">
<svg version="1.1" id="Layer_1" xmlns="http://www.w3.org/2000/svg" xmlns:xlink="http://www.w3.org/1999/xlink" x="0px" y="0px"
	 width="60px" height="60px" viewBox="0 0 60 60" enable-background="new 0 0 60 60" xml:space="preserve">
<g>
	<path fill="#EC1F27" d="M55.927,15.348h-5.489l-1.262-5.7c-0.539-2.434-2.656-4.134-5.149-4.134H24.969
		c-2.494,0-4.611,1.7-5.15,4.134l-1.261,5.7h-1.303v-2.432c0-1.371-1.114-2.486-2.485-2.486H6.734c-1.371,0-2.486,1.115-2.486,2.486
		v2.432H4.073C1.827,15.348,0,17.174,0,19.42v27.587c0,2.246,1.827,4.073,4.073,4.073h4.165h14.725
		c3.326,2.154,7.286,3.406,11.534,3.406c4.249,0,8.209-1.252,11.534-3.406h9.896c2.246,0,4.073-1.827,4.073-4.073V19.42
		C60,17.174,58.173,15.348,55.927,15.348z M22.107,10.154c0.299-1.353,1.476-2.297,2.861-2.297h19.058
		c1.386,0,2.562,0.945,2.861,2.297l1.149,5.193h-2.006c-3.325-2.154-7.285-3.406-11.534-3.406c-4.248,0-8.208,1.252-11.534,3.406
		h-2.005L22.107,10.154z M6.592,12.916c0-0.078,0.064-0.143,0.143-0.143h8.035c0.078,0,0.142,0.064,0.142,0.143v2.432H6.592V12.916z
		 M9.41,48.736V36.008c0-0.646-0.523-1.172-1.172-1.172c-0.646,0-1.172,0.525-1.172,1.172v12.729H4.073
		c-0.954,0-1.729-0.775-1.729-1.729V19.42c0-0.953,0.775-1.729,1.729-1.729H5.42h10.663h3.415h0.471
		c-4.148,3.884-6.744,9.405-6.744,15.522c0,6.116,2.596,11.638,6.744,15.522H9.41z M45.317,48.736
		c-1.397,0.977-2.931,1.77-4.567,2.344c-1.959,0.688-4.062,1.062-6.253,1.062s-4.294-0.375-6.253-1.062
		c-1.636-0.574-3.17-1.367-4.566-2.344c-4.898-3.425-8.109-9.105-8.109-15.522s3.211-12.099,8.109-15.522
		c1.396-0.977,2.931-1.77,4.566-2.344c1.959-0.688,4.062-1.062,6.253-1.062s4.294,0.375,6.253,1.062
		c1.637,0.574,3.17,1.367,4.567,2.344c4.898,3.424,8.108,9.105,8.108,15.522S50.216,45.312,45.317,48.736z M57.656,47.007
		c0,0.954-0.775,1.729-1.729,1.729h-6.9c4.147-3.885,6.743-9.406,6.743-15.522c0-6.117-2.596-11.639-6.743-15.522h0.47h6.431
		c0.954,0,1.729,0.775,1.729,1.729V47.007z"/>
	<path fill="#EC1F27" d="M34.497,17.828c-8.483,0-15.386,6.902-15.386,15.386S26.014,48.6,34.497,48.6
		c1.236,0,2.467-0.147,3.657-0.438c0.629-0.154,1.014-0.787,0.861-1.416c-0.154-0.629-0.788-1.015-1.416-0.861
		c-1.01,0.246-2.053,0.371-3.103,0.371c-7.19,0-13.042-5.851-13.042-13.042s5.852-13.042,13.042-13.042
		c7.191,0,13.042,5.851,13.042,13.042c0,2.621-0.773,5.147-2.238,7.308c-0.363,0.536-0.224,1.266,0.312,1.629
		c0.535,0.362,1.264,0.223,1.627-0.312c1.729-2.551,2.643-5.532,2.643-8.624C49.883,24.73,42.98,17.828,34.497,17.828z"/>
	<path fill="#EC1F27" d="M8.238,21.741c-2.405,0-4.363,1.958-4.363,4.364c0,2.405,1.958,4.363,4.363,4.363
		c2.406,0,4.364-1.958,4.364-4.363C12.603,23.699,10.645,21.741,8.238,21.741z M8.238,28.125c-1.113,0-2.02-0.906-2.02-2.02
		c0-1.114,0.906-2.02,2.02-2.02c1.114,0,2.021,0.905,2.021,2.02C10.259,27.219,9.353,28.125,8.238,28.125z"/>
	<path fill="#EC1F27" d="M43.889,44.297c-0.029-0.07-0.065-0.139-0.107-0.201c-0.042-0.064-0.092-0.125-0.146-0.179
		s-0.114-0.103-0.178-0.146c-0.064-0.042-0.133-0.078-0.203-0.107s-0.144-0.052-0.219-0.067c-0.151-0.03-0.308-0.03-0.458,0
		c-0.075,0.016-0.149,0.038-0.219,0.067c-0.071,0.029-0.139,0.065-0.203,0.107c-0.063,0.044-0.123,0.093-0.178,0.146
		s-0.104,0.114-0.146,0.179c-0.041,0.062-0.078,0.131-0.107,0.201c-0.029,0.071-0.051,0.146-0.066,0.219
		c-0.016,0.076-0.023,0.154-0.023,0.23s0.008,0.153,0.023,0.229c0.016,0.074,0.037,0.148,0.066,0.219
		c0.029,0.071,0.066,0.14,0.107,0.203c0.043,0.064,0.092,0.124,0.146,0.178s0.114,0.104,0.178,0.146
		c0.064,0.042,0.133,0.078,0.203,0.107s0.144,0.052,0.219,0.067c0.076,0.015,0.152,0.023,0.229,0.023
		c0.077,0,0.153-0.009,0.229-0.023c0.075-0.016,0.149-0.038,0.219-0.067c0.071-0.029,0.139-0.065,0.203-0.107
		c0.063-0.042,0.124-0.092,0.178-0.146c0.218-0.218,0.343-0.521,0.343-0.828c0-0.076-0.008-0.154-0.022-0.23
		C43.94,44.442,43.918,44.368,43.889,44.297z"/>
</g>
</svg>
