<?xml version="1.0" encoding="utf-8"?>
<!-- Generator: Adobe Illustrator 16.0.0, SVG Export Plug-In . SVG Version: 6.00 Build 0)  -->
<!DOCTYPE svg PUBLIC "-//W3C//DTD SVG 1.1//EN" "http://www.w3.org/Graphics/SVG/1.1/DTD/svg11.dtd">
<svg version="1.1" id="Layer_1" xmlns="http://www.w3.org/2000/svg" xmlns:xlink="http://www.w3.org/1999/xlink" x="0px" y="0px"
	 width="60px" height="60px" viewBox="0 0 60 60" enable-background="new 0 0 60 60" xml:space="preserve">
<g>
	<path fill="#EC1F27" d="M56.484,4.688h-1.143V3.984C55.342,1.787,53.555,0,51.357,0s-3.984,1.787-3.984,3.984v0.703H36.812V3.984
		C36.812,1.787,35.024,0,32.827,0c-2.196,0-3.984,1.787-3.984,3.984v0.703H18.281V3.984C18.281,1.787,16.494,0,14.297,0
		s-3.984,1.787-3.984,3.984v0.703H3.516C1.577,4.688,0,6.265,0,8.203v30.938c0,1.938,1.577,3.516,3.516,3.516h52.969
		c1.938,0,3.516-1.577,3.516-3.516V8.203C60,6.265,58.423,4.688,56.484,4.688z M49.717,3.984c0-0.905,0.736-1.641,1.641-1.641
		c0.905,0,1.641,0.736,1.641,1.641v0.703h-3.281V3.984z M48.516,9.375c1.551,0,2.812,1.262,2.812,2.812v0.586h-5.625v-0.586
		C45.703,10.637,46.965,9.375,48.516,9.375z M31.187,3.984c0-0.905,0.736-1.641,1.641-1.641c0.905,0,1.641,0.736,1.641,1.641v0.703
		h-3.281V3.984z M30.015,9.375c1.551,0,2.812,1.262,2.812,2.812v0.586h-5.625v-0.586C27.202,10.637,28.465,9.375,30.015,9.375z
		 M12.656,3.984c0-0.905,0.736-1.641,1.641-1.641s1.641,0.736,1.641,1.641v0.703h-3.281V3.984z M11.484,9.375
		c1.551,0,2.812,1.262,2.812,2.812v0.586H8.672v-0.586C8.672,10.637,9.934,9.375,11.484,9.375z M57.656,39.141
		c0,0.646-0.525,1.172-1.172,1.172H3.516c-0.646,0-1.172-0.525-1.172-1.172V8.203c0-0.646,0.525-1.172,1.172-1.172h6.797v0.136
		c-2.28,0.532-3.984,2.581-3.984,5.021v1.758c0,0.647,0.524,1.172,1.172,1.172h7.969c0.647,0,1.172-0.524,1.172-1.172v-1.758
		c0-2.44-1.704-4.488-3.984-5.021V7.031h16.187v0.136c-2.28,0.532-3.984,2.581-3.984,5.021v1.758c0,0.647,0.524,1.172,1.172,1.172
		h7.969c0.647,0,1.172-0.524,1.172-1.172v-1.758c0-2.44-1.704-4.488-3.984-5.021V7.031h16.187V7.16
		c-2.295,0.521-4.014,2.577-4.014,5.027v1.758c0,0.647,0.524,1.172,1.172,1.172H52.5c0.647,0,1.172-0.524,1.172-1.172v-1.758
		c0-2.429-1.689-4.47-3.955-5.013V7.031h6.768c0.646,0,1.172,0.526,1.172,1.172V39.141z"/>
	<path fill="#EC1F27" d="M35.338,20.918h-3.173c-0.647,0-1.172,0.524-1.172,1.172v11.25c0,0.646,0.524,1.172,1.172,1.172h3.173
		c3.07,0,5.569-2.498,5.569-5.569v-2.455C40.907,23.416,38.408,20.918,35.338,20.918z M38.563,28.942
		c0,1.778-1.446,3.226-3.226,3.226h-2.001v-8.906h2.001c1.779,0,3.226,1.447,3.226,3.226V28.942z"/>
	<path fill="#EC1F27" d="M25.17,21.717c-0.16-0.478-0.607-0.799-1.11-0.799s-0.95,0.321-1.11,0.799l-3.785,11.25
		c-0.207,0.613,0.123,1.277,0.736,1.484c0.613,0.206,1.277-0.124,1.484-0.737l0.822-2.444h3.705l0.822,2.444
		c0.164,0.489,0.621,0.798,1.109,0.798c0.125,0,0.25-0.02,0.375-0.061c0.613-0.207,0.943-0.871,0.736-1.484L25.17,21.717z
		 M22.996,28.926l1.062-3.161l1.064,3.161H22.996z"/>
	<path fill="#EC1F27" d="M52.5,45h-15h-15h-9.883c-0.646,0-1.172,0.525-1.172,1.172s0.525,1.172,1.172,1.172h8.711v11.484
		c0,0.646,0.524,1.172,1.172,1.172h15c0.647,0,1.172-0.525,1.172-1.172V47.344H52.5c0.647,0,1.172-0.525,1.172-1.172
		S53.147,45,52.5,45z M36.328,57.656H23.672V47.344h12.656V57.656z"/>
	<path fill="#EC1F27" d="M7.5,45c-0.309,0-0.61,0.125-0.828,0.344c-0.219,0.218-0.344,0.52-0.344,0.828S6.453,46.782,6.672,47
		c0.218,0.219,0.52,0.344,0.828,0.344S8.11,47.219,8.328,47c0.219-0.218,0.344-0.52,0.344-0.828s-0.125-0.61-0.344-0.828
		C8.11,45.125,7.809,45,7.5,45z"/>
</g>
</svg>
