<?xml version="1.0" encoding="utf-8"?>
<!-- Generator: Adobe Illustrator 16.0.0, SVG Export Plug-In . SVG Version: 6.00 Build 0)  -->
<!DOCTYPE svg PUBLIC "-//W3C//DTD SVG 1.1//EN" "http://www.w3.org/Graphics/SVG/1.1/DTD/svg11.dtd">
<svg version="1.1" id="Layer_1" xmlns="http://www.w3.org/2000/svg" xmlns:xlink="http://www.w3.org/1999/xlink" x="0px" y="0px"
	 width="60px" height="60px" viewBox="0 0 60 60" enable-background="new 0 0 60 60" xml:space="preserve">
<g>
	<path fill="#EC1F27" d="M56.158,22.102c-0.402-0.24-0.898-0.251-1.311-0.029l-8.588,4.622v-3.961c0-0.733-0.596-1.329-1.33-1.329
		h-2.158c2.693-2.184,4.418-5.519,4.418-9.25c0-6.565-5.34-11.906-11.906-11.906c-5.603,0-10.314,3.892-11.574,9.114
		c-1.648-1.989-4.135-3.258-6.914-3.258c-4.951,0-8.978,4.028-8.978,8.978c0,2.464,0.998,4.698,2.61,6.322H9.215
		c-0.734,0-1.328,0.595-1.328,1.328v6.029H4.524c-0.733,0-1.328,0.594-1.328,1.328v5.222c0,0.733,0.595,1.329,1.328,1.329h3.363
		v6.028c0,0.734,0.594,1.328,1.328,1.328h15.668l-7.199,13.809c-0.339,0.651-0.087,1.453,0.563,1.792
		c0.196,0.103,0.406,0.15,0.613,0.15c0.479,0,0.942-0.26,1.179-0.714l7.034-13.491l7.033,13.491c0.238,0.454,0.701,0.714,1.18,0.714
		c0.207,0,0.416-0.048,0.613-0.15c0.65-0.339,0.902-1.141,0.562-1.792l-7.198-13.809H44.93c0.734,0,1.33-0.594,1.33-1.328V38.71
		l8.588,4.622c0.195,0.106,0.412,0.158,0.629,0.158c0.236,0,0.471-0.062,0.682-0.187c0.4-0.24,0.646-0.673,0.646-1.141V23.242
		C56.805,22.774,56.559,22.342,56.158,22.102z M7.887,33.986H5.853v-2.567h2.034V33.986z M35.283,2.906
		c5.102,0,9.25,4.149,9.25,9.25c0,5.1-4.148,9.25-9.25,9.25c-5.1,0-9.249-4.149-9.249-9.25C26.034,7.056,30.184,2.906,35.283,2.906z
		 M25.142,18.385c0.71,1.151,1.609,2.172,2.655,3.021h-4.634C24.013,20.55,24.689,19.524,25.142,18.385z M16.795,8.762
		c3.486,0,6.322,2.836,6.322,6.322s-2.836,6.322-6.322,6.322s-6.322-2.836-6.322-6.322S13.31,8.762,16.795,8.762z M43.604,28.918
		v7.568v4.855H27.097c-0.002,0-0.005,0-0.007,0h-0.035c-0.002,0-0.003,0-0.005,0H10.542v-6.028v-5.223v-6.029h33.061V28.918z
		 M54.148,39.938l-7.889-4.245v-5.982l7.889-4.247V39.938z"/>
	<path fill="#EC1F27" d="M16.795,19.118c2.225,0,4.034-1.81,4.034-4.034c0-2.225-1.81-4.034-4.034-4.034s-4.035,1.81-4.035,4.034
		S14.571,19.118,16.795,19.118z M16.795,13.44c0.906,0,1.644,0.738,1.644,1.644s-0.738,1.644-1.644,1.644
		c-0.907,0-1.644-0.737-1.644-1.644S15.889,13.44,16.795,13.44z"/>
	<path fill="#EC1F27" d="M35.283,17.95c3.195,0,5.795-2.599,5.795-5.793c0-3.195-2.6-5.794-5.795-5.794
		c-3.193,0-5.793,2.6-5.793,5.794C29.49,15.351,32.09,17.95,35.283,17.95z M35.283,9.019c1.73,0,3.139,1.407,3.139,3.138
		c0,1.73-1.408,3.137-3.139,3.137s-3.137-1.408-3.137-3.137C32.146,10.426,33.553,9.019,35.283,9.019z"/>
	<path fill="#EC1F27" d="M16.559,37.48h14.44c0.696,0,1.261-0.564,1.261-1.262v-7.033c0-0.697-0.564-1.262-1.261-1.262h-14.44
		c-0.697,0-1.262,0.564-1.262,1.262v7.033C15.297,36.916,15.862,37.48,16.559,37.48z M17.82,30.447h11.917v4.51H17.82V30.447z"/>
	<circle fill="#EC1F27" cx="37.965" cy="30.514" r="1.328"/>
	<circle fill="#EC1F27" cx="37.965" cy="34.89" r="1.328"/>
</g>
</svg>
