<?xml version="1.0" encoding="utf-8"?>
<!-- Generator: Adobe Illustrator 16.0.0, SVG Export Plug-In . SVG Version: 6.00 Build 0)  -->
<!DOCTYPE svg PUBLIC "-//W3C//DTD SVG 1.1//EN" "http://www.w3.org/Graphics/SVG/1.1/DTD/svg11.dtd">
<svg version="1.1" id="Layer_1" xmlns="http://www.w3.org/2000/svg" xmlns:xlink="http://www.w3.org/1999/xlink" x="0px" y="0px"
	 width="60px" height="60px" viewBox="0 0 60 60" enable-background="new 0 0 60 60" xml:space="preserve">
<path fill="#EC1F27" d="M57.271,2.728c-3.64-3.637-9.56-3.637-13.199,0L6.674,40.126c-0.018,0.019-0.028,0.039-0.044,0.059
	c-0.021,0.023-0.041,0.052-0.061,0.078C6.515,40.34,6.472,40.422,6.44,40.51c-0.009,0.028-0.023,0.053-0.03,0.079
	c-0.003,0.011-0.009,0.021-0.013,0.03l-3.666,15.4c-0.017,0.07-0.022,0.14-0.024,0.21c0,0.013-0.003,0.026-0.003,0.039
	c0.001,0.118,0.027,0.234,0.067,0.344c0.009,0.026,0.021,0.05,0.031,0.074c0.051,0.11,0.114,0.218,0.204,0.309
	c0.098,0.097,0.215,0.172,0.34,0.226c0.126,0.052,0.259,0.077,0.394,0.077c0.08,0,0.161-0.01,0.239-0.028l15.4-3.667
	c0.028-0.004,0.054-0.021,0.081-0.031c0.035-0.011,0.069-0.023,0.103-0.039c0.075-0.035,0.144-0.077,0.209-0.128
	c0.024-0.02,0.05-0.033,0.075-0.057c0.007-0.008,0.019-0.013,0.026-0.02L57.27,15.929C60.91,12.289,60.91,6.367,57.271,2.728z
	 M18.191,51.753L7.064,54.402l0.785-0.785c0.404-0.404,0.404-1.061,0-1.467c-0.406-0.404-1.061-0.404-1.466,0l-0.786,0.785
	l2.648-11.125l4.586-0.51l-0.589,5.312c-0.005,0.039,0.009,0.075,0.009,0.113c0,0.039-0.015,0.074-0.009,0.113
	c0.003,0.035,0.021,0.062,0.028,0.097c0.013,0.061,0.031,0.115,0.052,0.171c0.027,0.066,0.06,0.129,0.099,0.188
	c0.032,0.046,0.063,0.089,0.104,0.131c0.049,0.054,0.104,0.098,0.164,0.139c0.046,0.033,0.091,0.062,0.142,0.087
	c0.068,0.033,0.141,0.052,0.215,0.068c0.04,0.011,0.072,0.031,0.113,0.037c0.037,0.004,0.075,0.006,0.112,0.006h0.002h0.001h0h0.001
	c0.037,0,0.076-0.002,0.113-0.006l5.312-0.591L18.191,51.753z M20.498,49.77l0.367-3.302l23.207-23.207
	c0.405-0.406,0.405-1.061,0-1.466c-0.406-0.406-1.062-0.406-1.467,0L19.397,45.002l-4.95,0.55l0.55-4.95l23.208-23.206
	c0.404-0.406,0.404-1.061,0-1.467c-0.406-0.405-1.061-0.405-1.467,0L13.532,39.135l-3.301,0.368l28.707-28.708l10.268,10.267
	L20.498,49.77z M50.671,19.595L40.404,9.328l1.467-1.466l10.267,10.267L50.671,19.595z M53.604,16.662L43.338,6.396l1.467-1.467
	l10.267,10.266L53.604,16.662z M56.479,13.67L46.329,3.521c2.842-2.126,6.896-1.906,9.476,0.673
	C58.385,6.776,58.604,10.829,56.479,13.67z"/>
<path fill="#EC1F27" d="M59.022,58.1H1.025c-0.525,0-0.95,0.426-0.95,0.95S0.5,60,1.025,60h57.997c0.524,0,0.95-0.426,0.95-0.95
	S59.547,58.1,59.022,58.1z"/>
</svg>
