<?xml version="1.0" encoding="utf-8"?>
<!-- Generator: Adobe Illustrator 16.0.0, SVG Export Plug-In . SVG Version: 6.00 Build 0)  -->
<!DOCTYPE svg PUBLIC "-//W3C//DTD SVG 1.1//EN" "http://www.w3.org/Graphics/SVG/1.1/DTD/svg11.dtd">
<svg version="1.1" id="Layer_1" xmlns="http://www.w3.org/2000/svg" xmlns:xlink="http://www.w3.org/1999/xlink" x="0px" y="0px"
	 width="60px" height="60px" viewBox="0 0 60 60" enable-background="new 0 0 60 60" xml:space="preserve">
<g>
	<path fill="#EC1F27" d="M53.521,10.597c-0.126-0.672-0.642-1.251-1.388-1.553c-0.747-0.301-1.519-0.245-2.077,0.15l-9.51,6.268
		L30.702,1.185c-0.395-0.619-1.147-0.987-2.021-0.987c-0.875,0-1.627,0.369-2.022,0.987l-8.905,12.914l-6.126-5.901
		c-0.483-0.499-1.245-0.699-2.046-0.535C8.779,7.826,8.157,8.307,7.907,8.954L0.105,27.249c-0.093,0.217-0.117,0.458-0.07,0.69
		c0.289,1.419,1.934,2.167,5.029,2.286c0.177,0.007,0.358,0.011,0.541,0.014l4.038,19.862c0.151,0.742,0.796,2.063,3.417,2.58
		c0.685,0.135,1.443,0.202,2.248,0.202c0.058,0,0.116-0.002,0.173-0.003l1.062,5.222c0.068,0.334,0.362,1.139,1.63,1.389
		c0.634,0.125,1.303,0.083,1.934-0.045c1.89-0.385,2.998-1.441,2.756-2.629l-1.061-5.223c0.471-0.193,0.917-0.403,1.328-0.63
		c0.63,0.215,1.318,0.391,2.049,0.524v6.173c0,1.281,1.407,2.142,3.501,2.142c2.093,0,3.501-0.86,3.501-2.142v-6.172
		c0.396-0.071,0.785-0.156,1.159-0.254c1.155,5.027,4.884,8.567,9.201,8.567c0.646,0,1.169-0.523,1.169-1.168
		c0-0.646-0.523-1.17-1.169-1.17c-3.291,0-6.15-2.924-6.985-7.044c0.065-0.032,0.128-0.066,0.19-0.1
		c1.759,0.678,3.523,1.04,5.001,1.04c0.514,0,0.993-0.044,1.425-0.133c1.535-0.318,2.155-1.121,2.406-1.739L51.93,31.32
		c0.165,0.027,0.329,0.055,0.489,0.077c0.753,0.11,1.424,0.166,2.017,0.166c1.758,0,2.816-0.488,3.216-1.475
		c0.089-0.219,0.108-0.46,0.057-0.691L53.521,10.597z M4.843,27.875c-0.76-0.043-1.581-0.105-2.296-0.394L10.02,9.959
		c0.018-0.004,0.037-0.009,0.056-0.011l6.333,6.102l-2.552,3.704c-0.304,0.44-0.238,1.034-0.034,1.502
		c0.541,1.248,2.354,2.187,5.497,2.849v1.359c-0.016,0.005-0.032,0.011-0.047,0.017c-2.341,0.83-4.771,1.419-7.218,1.839
		c-1.23,0.211-2.47,0.376-3.715,0.478C7.179,27.892,6.009,27.94,4.843,27.875z M20.283,56.96c-0.206,0.087-0.423,0.149-0.642,0.194
		c-0.199,0.04-0.403,0.067-0.605,0.071c-0.051,0.001-0.253,0.023-0.288-0.015l-0.92-4.529c0.585-0.089,1.166-0.208,1.74-0.354
		l0.918,4.521C20.471,56.898,20.333,56.939,20.283,56.96z M20.069,49.746c-1.253,0.418-2.564,0.679-3.881,0.767
		c-0.643,0.043-1.291,0.045-1.932-0.019c-0.556-0.055-1.122-0.151-1.64-0.365c-0.177-0.072-0.354-0.159-0.504-0.278
		c-0.067-0.053-0.16-0.126-0.178-0.215L7.977,30.169c1.479-0.099,2.951-0.287,4.412-0.536c1.481-0.252,2.952-0.568,4.404-0.951
		c0.849-0.224,1.693-0.472,2.528-0.747v19.276c0,0.943,0.521,1.77,1.218,2.37C20.383,49.639,20.226,49.693,20.069,49.746z
		 M29.844,57.285c-0.223,0.086-0.625,0.18-1.164,0.18c-0.54,0-0.94-0.094-1.164-0.18c0-0.622,0-1.243,0-1.865
		c0-0.991,0-1.982,0-2.974c0-0.228,0-0.454,0-0.683c0.775,0.043,1.552,0.043,2.327,0V57.285z M35.704,47.212
		c0,0.288-0.34,0.554-0.545,0.71c-0.287,0.218-0.604,0.391-0.933,0.538c-0.685,0.311-1.414,0.517-2.148,0.668
		c-1.668,0.343-3.401,0.412-5.096,0.251c-0.914-0.086-1.825-0.238-2.706-0.498l11.427-6.689V47.212z M35.704,39.483l-13.857,8.111
		c-0.087-0.103-0.189-0.24-0.189-0.382V44.68l14.047-8.208V39.483z M35.704,33.764l-14.047,8.209v-3.788l14.047-8.223V33.764z
		 M35.704,27.254l-14.047,8.223V32.45l13.457-7.863c0.016-0.002,0.031-0.005,0.048-0.006c0.164-0.021,0.327-0.042,0.487-0.065
		c0.019-0.002,0.036-0.005,0.055-0.007V27.254z M21.657,29.743v-5.233c1.453,0.203,2.917,0.325,4.383,0.393
		c1.271,0.059,2.545,0.074,3.817,0.049L21.657,29.743z M33.587,22.401c-1.461,0.14-2.929,0.207-4.396,0.221
		c-1.512,0.014-3.024-0.032-4.532-0.146c-1.371-0.104-2.742-0.261-4.095-0.511c-0.169-0.031-0.337-0.063-0.506-0.098
		c-0.037-0.008-0.073-0.014-0.109-0.022c-2.258-0.469-3.353-1.014-3.776-1.335l1.403-2.037L28.558,2.547
		c0.07-0.016,0.175-0.016,0.245,0L39.271,17.73c0.001,0,0.001,0.001,0.001,0.001l1.918,2.781c-0.384,0.293-0.852,0.484-1.301,0.652
		c-0.655,0.244-1.331,0.427-2.013,0.582C36.465,22.067,35.026,22.264,33.587,22.401z M42.412,48.612
		c-0.021,0.051-0.196,0.22-0.714,0.327c-0.808,0.168-2.215,0.119-3.989-0.413c0.216-0.402,0.332-0.84,0.332-1.313V28.335
		l0.764-1.888c1.338,0.76,2.724,1.435,4.136,2.046c1.378,0.598,2.784,1.135,4.213,1.603c0.812,0.266,1.631,0.508,2.457,0.722
		L42.412,48.612z M52.125,28.981c-1.812-0.326-3.587-0.856-5.318-1.473c-1.757-0.626-3.48-1.354-5.148-2.19
		c-0.89-0.446-1.766-0.923-2.613-1.447c0.603-0.154,1.146-0.322,1.633-0.505c0.048-0.017,0.094-0.035,0.14-0.052
		c0.016-0.007,0.033-0.014,0.05-0.02c1.908-0.744,2.844-1.694,2.844-2.877c0-0.237-0.071-0.469-0.206-0.664l-1.631-2.365
		l9.375-6.179c0.005,0.002,0.011,0.004,0.016,0.006l3.997,17.951C54.791,29.253,53.818,29.286,52.125,28.981z"/>
	<path fill="#EC1F27" d="M51.758,6.612c0.646,0,1.169-0.523,1.169-1.169V3.627c0-0.645-0.523-1.168-1.169-1.168
		s-1.169,0.523-1.169,1.168v1.816C50.589,6.089,51.112,6.612,51.758,6.612z"/>
	<path fill="#EC1F27" d="M58.818,9.52h-1.816c-0.646,0-1.168,0.522-1.168,1.168c0,0.646,0.522,1.169,1.168,1.169h1.816
		c0.646,0,1.169-0.523,1.169-1.169C59.987,10.042,59.464,9.52,58.818,9.52z"/>
	<path fill="#EC1F27" d="M55.467,8.148c0.299,0,0.598-0.114,0.825-0.342l1.284-1.284c0.457-0.458,0.457-1.197,0-1.653
		c-0.455-0.457-1.195-0.457-1.652,0L54.64,6.153c-0.456,0.456-0.456,1.197,0,1.653C54.868,8.034,55.167,8.148,55.467,8.148z"/>
	<path fill="#EC1F27" d="M47.223,7.806c0.229,0.228,0.528,0.342,0.826,0.342c0.3,0,0.599-0.114,0.827-0.342
		c0.456-0.456,0.456-1.196,0-1.653l-1.284-1.284c-0.456-0.457-1.197-0.457-1.653,0c-0.455,0.457-0.456,1.196,0,1.653L47.223,7.806z"
		/>
	<path fill="#EC1F27" d="M13.919,43.995c0.632-0.128,1.041-0.745,0.912-1.378l-2.023-9.953c-0.128-0.634-0.745-1.041-1.377-0.913
		s-1.041,0.745-0.913,1.378l2.024,9.954c0.113,0.555,0.6,0.937,1.144,0.937C13.762,44.02,13.839,44.012,13.919,43.995z"/>
	<path fill="#EC1F27" d="M44.184,35.933c-0.598-0.241-1.279,0.048-1.521,0.646L40.25,42.57c-0.241,0.6,0.048,1.279,0.646,1.521
		c0.144,0.059,0.291,0.085,0.437,0.085c0.463,0,0.901-0.276,1.085-0.731l2.413-5.991C45.072,36.854,44.782,36.174,44.184,35.933z"/>
	<circle fill="#EC1F27" cx="14.626" cy="47.472" r="1.176"/>
	<circle fill="#EC1F27" cx="45.511" cy="32.64" r="1.176"/>
</g>
</svg>
