<?xml version="1.0" encoding="utf-8"?>
<!-- Generator: Adobe Illustrator 16.0.0, SVG Export Plug-In . SVG Version: 6.00 Build 0)  -->
<!DOCTYPE svg PUBLIC "-//W3C//DTD SVG 1.1//EN" "http://www.w3.org/Graphics/SVG/1.1/DTD/svg11.dtd">
<svg version="1.1" id="Layer_1" xmlns="http://www.w3.org/2000/svg" xmlns:xlink="http://www.w3.org/1999/xlink" x="0px" y="0px"
	 width="60px" height="60px" viewBox="0 0 60 60" enable-background="new 0 0 60 60" xml:space="preserve">
<g>
	<path fill="#EC1F27" d="M52.047,41.114l-5.691,8.177l-4.016-3.297c-0.434-0.357-1.075-0.293-1.432,0.141
		c-0.356,0.435-0.293,1.076,0.143,1.432l4.867,3.995c0.183,0.15,0.41,0.231,0.645,0.231c0.045,0,0.092-0.003,0.139-0.01
		c0.281-0.039,0.533-0.193,0.695-0.426l6.32-9.081c0.32-0.46,0.207-1.094-0.255-1.415C53,40.537,52.367,40.652,52.047,41.114z"/>
	<path fill="#EC1F27" d="M52.881,35.063V15.254V5.085c0-0.562-0.455-1.017-1.017-1.017h-5.085V1.017C46.779,0.455,46.324,0,45.763,0
		h-7.118c-0.562,0-1.018,0.455-1.018,1.017v3.051H15.254V1.017C15.254,0.455,14.799,0,14.237,0H7.119
		C6.557,0,6.102,0.455,6.102,1.017v3.051H1.018C0.455,4.068,0,4.522,0,5.085v10.169v41.695c0,0.562,0.455,1.018,1.018,1.018h38.749
		C41.803,59.248,44.203,60,46.779,60C54.069,60,60,54.069,60,46.779C60,41.691,57.105,37.272,52.881,35.063z M39.661,5.085V2.034
		h5.085v3.051v3.051h-5.085V5.085z M8.136,5.085V2.034h5.085v3.051v3.051H8.136V5.085z M2.033,6.102h4.068v3.051
		c0,0.562,0.455,1.017,1.018,1.017h7.118c0.562,0,1.017-0.455,1.017-1.017V6.102h22.373v3.051c0,0.562,0.455,1.017,1.018,1.017
		h7.118c0.562,0,1.017-0.455,1.017-1.017V6.102h4.068v8.136H2.033V6.102z M2.033,55.934v-0.002V16.271h48.814v17.935
		c-0.199-0.063-0.402-0.116-0.606-0.172c-0.188-0.052-0.376-0.103-0.566-0.146c-0.172-0.038-0.346-0.072-0.52-0.104
		c-0.248-0.046-0.497-0.083-0.747-0.115c-0.14-0.017-0.277-0.036-0.418-0.05c-0.4-0.035-0.805-0.06-1.211-0.06
		c-0.344,0-0.68,0.025-1.017,0.052v-1.068v-2.035v-9.152H36.61h-2.034h-7.119h-2.033h-7.119h-2.033H7.119v9.152v2.035v7.118v2.034
		v9.152h9.152h2.033h7.119h2.033h6.749c0.029,0.09,0.065,0.176,0.097,0.264c0.086,0.248,0.17,0.496,0.271,0.736
		c0.056,0.136,0.122,0.265,0.183,0.396c0.117,0.259,0.236,0.516,0.369,0.767c0.06,0.108,0.125,0.214,0.188,0.321
		c0.15,0.264,0.303,0.523,0.472,0.775c0.062,0.093,0.13,0.18,0.194,0.271c0.18,0.255,0.362,0.507,0.561,0.749
		c0.073,0.089,0.152,0.173,0.228,0.261c0.157,0.183,0.308,0.369,0.476,0.545H2.033z M36.61,30.508V23.39h7.118v7.118H36.61z
		 M43.729,32.543v1.385c-0.018,0.004-0.034,0.01-0.051,0.014c-0.937,0.227-1.834,0.554-2.682,0.969
		c-0.109,0.053-0.222,0.103-0.329,0.158c-0.191,0.1-0.376,0.209-0.562,0.318c-0.162,0.095-0.323,0.191-0.48,0.292
		c-0.16,0.104-0.316,0.21-0.471,0.319c-0.176,0.124-0.347,0.254-0.516,0.387c-0.137,0.106-0.273,0.213-0.404,0.325
		c-0.178,0.15-0.348,0.31-0.518,0.47c-0.117,0.111-0.238,0.218-0.352,0.332c-0.184,0.187-0.357,0.385-0.53,0.583
		c-0.073,0.085-0.153,0.162-0.226,0.249v-5.801H43.729z M33.613,47.891c0.006,0.068,0.006,0.137,0.014,0.205
		c0.016,0.164,0.049,0.324,0.07,0.486v0.002c0.012,0.077,0.016,0.153,0.027,0.229h-6.268v-7.118h7.119v0.007
		c-0.01,0.024-0.016,0.05-0.026,0.074c-0.152,0.371-0.292,0.751-0.411,1.138c-0.035,0.117-0.059,0.237-0.092,0.355
		c-0.08,0.295-0.164,0.59-0.225,0.894c-0.049,0.235-0.074,0.476-0.109,0.713c-0.027,0.192-0.066,0.382-0.086,0.577
		c-0.045,0.438-0.067,0.881-0.067,1.326C33.56,47.146,33.58,47.518,33.613,47.891z M27.457,39.661v-7.118h7.119v7.118H27.457z
		 M27.457,30.508V23.39h7.119v7.118H27.457z M18.305,39.661v-7.118h7.119v7.118H18.305z M25.424,41.695v7.118h-7.119v-7.118H25.424z
		 M18.305,30.508V23.39h7.119v7.118H18.305z M9.152,39.661v-7.118h7.119v7.118H9.152z M16.271,41.695v7.118H9.152v-7.118H16.271z
		 M9.152,30.508V23.39h7.119v7.118H9.152z M46.779,57.967c-2.296,0-4.433-0.698-6.21-1.891c-0.347-0.231-0.675-0.483-0.989-0.748
		c-0.109-0.094-0.213-0.193-0.318-0.291c-0.201-0.182-0.395-0.369-0.58-0.562c-0.119-0.126-0.234-0.253-0.347-0.382
		c-0.167-0.192-0.323-0.391-0.476-0.593c-0.098-0.129-0.199-0.254-0.291-0.388c-0.225-0.327-0.437-0.662-0.625-1.01
		c-0.045-0.081-0.079-0.167-0.121-0.249c-0.148-0.291-0.286-0.586-0.409-0.889c-0.054-0.133-0.099-0.268-0.147-0.402
		c-0.096-0.266-0.184-0.537-0.26-0.811c-0.018-0.062-0.032-0.126-0.049-0.189c-0.115-0.447-0.199-0.891-0.26-1.334
		c-0.004-0.031-0.01-0.062-0.014-0.096c-0.059-0.456-0.09-0.908-0.09-1.354c0-0.385,0.019-0.768,0.059-1.146
		c0.003-0.031,0.012-0.062,0.014-0.094c0.039-0.347,0.09-0.692,0.161-1.033c0.007-0.033,0.019-0.064,0.025-0.097
		c0.073-0.338,0.159-0.673,0.265-1.005c0.012-0.039,0.029-0.076,0.041-0.115c0.105-0.316,0.221-0.633,0.355-0.941
		c0.126-0.291,0.262-0.576,0.412-0.854l0.1-0.174c0.041-0.074,0.09-0.143,0.132-0.215c0.177-0.299,0.366-0.587,0.566-0.865
		c0.05-0.07,0.102-0.138,0.153-0.206c0.184-0.242,0.377-0.475,0.578-0.7c0.07-0.078,0.141-0.157,0.213-0.233
		c0.199-0.212,0.408-0.411,0.623-0.606c0.076-0.068,0.15-0.14,0.229-0.207c0.252-0.216,0.514-0.418,0.783-0.61
		c0.043-0.03,0.084-0.063,0.126-0.095c1.327-0.917,2.852-1.545,4.487-1.82l0.021-0.003c0.6-0.101,1.213-0.165,1.842-0.165
		c0.396,0,0.789,0.021,1.18,0.063c0.062,0.007,0.12,0.021,0.182,0.027c0.334,0.042,0.666,0.092,0.994,0.163
		c0.041,0.009,0.08,0.021,0.119,0.03c0.35,0.081,0.697,0.174,1.039,0.289c0.023,0.008,0.046,0.017,0.069,0.025
		c0.351,0.12,0.696,0.257,1.04,0.413c3.865,1.764,6.564,5.656,6.564,10.174C57.967,52.947,52.947,57.967,46.779,57.967z"/>
</g>
</svg>
