<?xml version="1.0" encoding="utf-8"?>
<!-- Generator: Adobe Illustrator 16.0.0, SVG Export Plug-In . SVG Version: 6.00 Build 0)  -->
<!DOCTYPE svg PUBLIC "-//W3C//DTD SVG 1.1//EN" "http://www.w3.org/Graphics/SVG/1.1/DTD/svg11.dtd">
<svg version="1.1" id="Layer_1" xmlns="http://www.w3.org/2000/svg" xmlns:xlink="http://www.w3.org/1999/xlink" x="0px" y="0px"
	 width="60px" height="60px" viewBox="0 0 60 60" enable-background="new 0 0 60 60" xml:space="preserve">
<g>
	<path fill="#EC1F27" d="M17.557,17.855c0-3.061-2.49-5.552-5.551-5.552c-3.062,0-5.553,2.491-5.553,5.552s2.491,5.552,5.553,5.552
		C15.066,23.408,17.557,20.917,17.557,17.855z M9.229,17.855c0-1.531,1.245-2.776,2.776-2.776c1.53,0,2.775,1.245,2.775,2.776
		c0,1.53-1.245,2.776-2.775,2.776C10.475,20.631,9.229,19.386,9.229,17.855z"/>
	<path fill="#EC1F27" d="M12.006,33.539c-3.062,0-5.553,2.49-5.553,5.551c0,3.062,2.491,5.553,5.553,5.553
		c3.061,0,5.551-2.49,5.551-5.553C17.557,36.029,15.066,33.539,12.006,33.539z M12.006,41.867c-1.531,0-2.776-1.246-2.776-2.777
		c0-1.529,1.245-2.775,2.776-2.775c1.53,0,2.775,1.246,2.775,2.775C14.781,40.621,13.536,41.867,12.006,41.867z"/>
	<path fill="#EC1F27" d="M54.494,34.764c-2.223-3.02-4.908-5.209-7.85-6.461c3.637-2.064,6.096-5.975,6.096-10.447
		c0-6.62-5.385-12.005-12.005-12.005H12.006C5.386,5.85,0,11.236,0,17.855c0,4.599,2.6,8.602,6.407,10.617
		C2.6,30.488,0,34.492,0,39.09c0,6.621,5.386,12.006,12.006,12.006H25.58c0.768,0,1.389-0.621,1.389-1.387
		c0-0.768-0.621-1.389-1.389-1.389h-5.906c2.648-2.205,4.337-5.523,4.337-9.23c0-0.814-0.082-1.611-0.237-2.381
		c2.93,4.135,4.742,9.805,4.742,16.053c0,0.766,0.621,1.389,1.387,1.389h28.71c0.767,0,1.388-0.623,1.388-1.389
		C60,45.98,58.045,39.588,54.494,34.764z M40.735,8.626c5.089,0,9.229,4.14,9.229,9.229s-4.141,9.23-9.229,9.23H19.674
		c2.648-2.205,4.337-5.523,4.337-9.23s-1.688-7.026-4.337-9.229H40.735z M2.775,17.855c0-5.089,4.141-9.229,9.23-9.229
		c5.089,0,9.229,4.14,9.229,9.229s-4.14,9.23-9.229,9.23C6.916,27.085,2.775,22.945,2.775,17.855z M12.006,48.32
		c-5.09,0-9.23-4.141-9.23-9.23c0-5.088,4.141-9.229,9.23-9.229c5.089,0,9.229,4.141,9.229,9.229
		C21.234,44.18,17.095,48.32,12.006,48.32z M31.264,51.373c-0.248-6.262-2.172-12.115-5.479-16.609
		c-1.482-2.014-3.17-3.658-5.002-4.903h19.952c8.756,0,15.94,9.53,16.459,21.512H31.264z"/>
</g>
</svg>
