<?xml version="1.0" encoding="utf-8"?>
<!-- Generator: Adobe Illustrator 16.0.0, SVG Export Plug-In . SVG Version: 6.00 Build 0)  -->
<!DOCTYPE svg PUBLIC "-//W3C//DTD SVG 1.1//EN" "http://www.w3.org/Graphics/SVG/1.1/DTD/svg11.dtd">
<svg version="1.1" id="Layer_1" xmlns="http://www.w3.org/2000/svg" xmlns:xlink="http://www.w3.org/1999/xlink" x="0px" y="0px"
	 width="25px" height="25px" viewBox="0 0 25 25" enable-background="new 0 0 25 25" xml:space="preserve">
<g>
	<path fill="#EB2429" d="M25,12.502C25,19.404,19.404,25,12.5,25S0,19.404,0,12.502C0,5.597,5.596,0,12.5,0S25,5.597,25,12.502"/>
	<path fill="#FFFFFF" d="M20.505,10.201l-2.071-1.379V4.226c0-0.151-0.12-0.272-0.271-0.272H6.838c-0.146,0-0.272,0.121-0.272,0.272
		v4.597l-2.07,1.379c-0.078,0.047-0.12,0.129-0.12,0.223v8.334c0,0.15,0.12,0.271,0.267,0.271h15.717
		c0.146,0,0.267-0.121,0.267-0.271v-8.334C20.625,10.33,20.578,10.248,20.505,10.201 M18.434,9.47l1.033,0.687h-1.033V9.47z
		 M18.434,10.692h0.845l-0.845,0.449V10.692z M7.108,4.492h10.787v6.934l-4.509,2.391l-0.74-0.488c-0.089-0.061-0.204-0.061-0.293,0
		l-0.741,0.488l-4.504-2.391V4.492z M6.565,9.472v0.685H5.533L6.565,9.472z M6.565,10.692v0.449l-0.844-0.449H6.565z M4.912,10.873
		l6.189,3.281L4.912,18.26V10.873z M5.533,18.492l6.967-4.615l6.967,4.615H5.533z M20.087,18.26l-6.188-4.105l6.188-3.281V18.26z"/>
	<path fill="#FFFFFF" d="M14.645,11.036c0.146,0,0.271-0.119,0.271-0.271c0-0.146-0.125-0.269-0.271-0.269H12.5
		c-1.034,0-1.879-0.843-1.879-1.875v-0.08c0-1.035,0.845-1.877,1.879-1.877c1.033,0,1.879,0.842,1.879,1.877v0.199
		c0,0.223-0.188,0.405-0.407,0.405c-0.225,0-0.407-0.183-0.407-0.405v-0.38c0-0.641-0.521-1.159-1.164-1.159
		c-0.642,0-1.163,0.519-1.163,1.159c0,0.644,0.521,1.162,1.163,1.162c0.293,0,0.563-0.106,0.763-0.287
		c0.167,0.271,0.469,0.449,0.809,0.449c0.517,0,0.944-0.426,0.944-0.944V8.542c0-1.332-1.085-2.414-2.416-2.414
		s-2.416,1.082-2.416,2.414v0.08c0,1.328,1.085,2.414,2.416,2.414H14.645z M12.4,8.988c-0.344,0-0.626-0.282-0.626-0.627
		c0-0.344,0.282-0.623,0.626-0.623c0.345,0,0.627,0.279,0.627,0.623C13.027,8.706,12.745,8.988,12.4,8.988"/>
</g>
</svg>
