<?xml version="1.0" encoding="utf-8"?>
<!-- Generator: Adobe Illustrator 16.0.0, SVG Export Plug-In . SVG Version: 6.00 Build 0)  -->
<!DOCTYPE svg PUBLIC "-//W3C//DTD SVG 1.1//EN" "http://www.w3.org/Graphics/SVG/1.1/DTD/svg11.dtd">
<svg version="1.1" id="Layer_1" xmlns="http://www.w3.org/2000/svg" xmlns:xlink="http://www.w3.org/1999/xlink" x="0px" y="0px"
	 width="25px" height="25px" viewBox="0 0 25 25" enable-background="new 0 0 25 25" xml:space="preserve">
<g>
	<path fill="#EB2429" d="M25,12.502C25,19.404,19.404,25,12.499,25C5.596,25,0,19.404,0,12.502C0,5.599,5.596,0,12.499,0
		C19.404,0,25,5.599,25,12.502"/>
	<path fill="#FFFFFF" d="M16.649,14.426c-0.291-0.307-0.645-0.469-1.02-0.469c-0.369,0-0.728,0.16-1.029,0.467l-0.952,0.947
		c-0.079-0.039-0.158-0.08-0.233-0.119c-0.111-0.055-0.213-0.105-0.301-0.16c-0.893-0.566-1.704-1.307-2.482-2.262
		c-0.377-0.477-0.629-0.878-0.814-1.287c0.247-0.224,0.477-0.461,0.697-0.687c0.085-0.086,0.172-0.173,0.256-0.255
		c0.635-0.635,0.635-1.456,0-2.09L9.947,7.688c-0.094-0.093-0.188-0.19-0.281-0.287C9.485,7.215,9.294,7.022,9.1,6.842
		C8.808,6.549,8.457,6.397,8.087,6.397c-0.365,0-0.722,0.151-1.023,0.444L7.057,6.848L6.032,7.881
		C5.646,8.266,5.423,8.739,5.378,9.286c-0.074,0.88,0.186,1.699,0.387,2.238c0.488,1.317,1.217,2.54,2.306,3.847
		c1.321,1.578,2.911,2.824,4.728,3.703c0.694,0.328,1.62,0.719,2.656,0.783c0.061,0.004,0.13,0.006,0.189,0.006
		c0.698,0,1.284-0.25,1.738-0.748c0.004-0.006,0.012-0.006,0.014-0.014c0.156-0.191,0.338-0.361,0.529-0.549
		c0.129-0.121,0.261-0.25,0.391-0.389c0.298-0.309,0.456-0.672,0.456-1.043c0-0.373-0.158-0.732-0.464-1.035L16.649,14.426z
		 M17.731,17.602c-0.117,0.127-0.238,0.244-0.37,0.367c-0.194,0.186-0.396,0.383-0.58,0.604c-0.306,0.326-0.665,0.48-1.138,0.48
		c-0.042,0-0.091,0-0.137-0.002c-0.896-0.059-1.727-0.408-2.352-0.709c-1.708-0.826-3.208-1.998-4.455-3.486
		c-1.027-1.238-1.716-2.387-2.172-3.618c-0.28-0.748-0.381-1.334-0.337-1.888c0.03-0.352,0.164-0.646,0.415-0.896l1.03-1.028
		c0.147-0.138,0.306-0.217,0.458-0.217c0.19,0,0.346,0.116,0.439,0.215C8.538,7.426,8.543,7.43,8.543,7.43
		c0.186,0.175,0.358,0.354,0.544,0.541c0.094,0.099,0.191,0.193,0.287,0.293l0.824,0.822c0.316,0.323,0.316,0.618,0,0.938
		c-0.087,0.086-0.175,0.174-0.259,0.26c-0.254,0.256-0.497,0.5-0.759,0.736c-0.006,0.004-0.013,0.008-0.014,0.014
		c-0.262,0.261-0.213,0.513-0.16,0.685c0,0,0.008,0.021,0.01,0.029c0.215,0.518,0.516,1.006,0.976,1.586l0.004,0.002
		c0.833,1.027,1.71,1.828,2.679,2.441c0.123,0.078,0.248,0.143,0.369,0.199c0.111,0.057,0.213,0.107,0.3,0.162
		c0.013,0.004,0.026,0.016,0.036,0.02c0.103,0.053,0.199,0.076,0.301,0.076c0.249,0,0.406-0.158,0.455-0.207l1.032-1.033
		c0.105-0.102,0.268-0.227,0.458-0.227c0.185,0,0.34,0.119,0.434,0.223l0.007,0.004l1.661,1.662
		C18.038,16.965,18.038,17.283,17.731,17.602"/>
	<path fill="#FFFFFF" d="M13.08,8.969c0.789,0.136,1.508,0.511,2.08,1.082c0.571,0.574,0.944,1.293,1.08,2.082
		c0.032,0.199,0.205,0.336,0.401,0.336c0.023,0,0.043-0.004,0.068-0.006c0.223-0.033,0.371-0.246,0.337-0.471
		c-0.164-0.955-0.616-1.826-1.307-2.517c-0.691-0.692-1.563-1.144-2.521-1.308c-0.223-0.037-0.432,0.112-0.47,0.33
		C12.712,8.722,12.854,8.935,13.08,8.969"/>
	<path fill="#FFFFFF" d="M19.629,11.877c-0.269-1.575-1.01-3.01-2.148-4.147c-1.139-1.143-2.571-1.885-4.148-2.155
		c-0.22-0.039-0.429,0.112-0.468,0.336c-0.035,0.22,0.113,0.431,0.334,0.47c1.406,0.239,2.688,0.905,3.709,1.922
		c1.02,1.019,1.682,2.301,1.921,3.709c0.034,0.2,0.205,0.335,0.401,0.335c0.026,0,0.045-0.004,0.071-0.006
		C19.52,12.309,19.669,12.096,19.629,11.877"/>
</g>
<g>
	<path fill="#EB2429" d="M1207.015,5688.418c0,6.902-5.596,12.498-12.501,12.498c-6.903,0-12.499-5.596-12.499-12.498
		c0-6.904,5.596-12.502,12.499-12.502C1201.419,5675.916,1207.015,5681.514,1207.015,5688.418"/>
	<path fill="#FFFFFF" d="M1198.664,5690.342c-0.291-0.307-0.645-0.469-1.02-0.469c-0.369,0-0.728,0.16-1.029,0.467l-0.952,0.947
		c-0.079-0.039-0.158-0.08-0.233-0.119c-0.111-0.055-0.213-0.105-0.301-0.16c-0.893-0.566-1.704-1.307-2.482-2.262
		c-0.377-0.477-0.629-0.879-0.814-1.287c0.247-0.225,0.477-0.461,0.697-0.688c0.085-0.086,0.172-0.172,0.256-0.254
		c0.635-0.635,0.635-1.457,0-2.09l-0.823-0.824c-0.094-0.092-0.188-0.189-0.281-0.287c-0.181-0.186-0.372-0.379-0.566-0.559
		c-0.292-0.293-0.643-0.445-1.013-0.445c-0.365,0-0.722,0.152-1.023,0.445l-0.007,0.006l-1.024,1.033
		c-0.386,0.385-0.609,0.857-0.654,1.404c-0.074,0.881,0.186,1.699,0.387,2.238c0.488,1.318,1.217,2.541,2.306,3.848
		c1.321,1.578,2.911,2.824,4.728,3.703c0.694,0.328,1.62,0.719,2.656,0.783c0.061,0.004,0.13,0.006,0.189,0.006
		c0.698,0,1.284-0.25,1.738-0.748c0.004-0.006,0.012-0.006,0.014-0.014c0.156-0.191,0.338-0.361,0.529-0.549
		c0.129-0.121,0.261-0.25,0.391-0.389c0.298-0.309,0.456-0.672,0.456-1.043c0-0.373-0.158-0.732-0.464-1.035L1198.664,5690.342z
		 M1199.746,5693.518c-0.117,0.127-0.238,0.244-0.37,0.367c-0.194,0.186-0.396,0.383-0.58,0.604c-0.306,0.326-0.665,0.48-1.138,0.48
		c-0.042,0-0.091,0-0.137-0.002c-0.896-0.059-1.727-0.408-2.352-0.709c-1.708-0.826-3.208-1.998-4.455-3.486
		c-1.027-1.238-1.716-2.387-2.172-3.619c-0.28-0.748-0.381-1.334-0.337-1.887c0.03-0.352,0.164-0.646,0.415-0.896l1.03-1.027
		c0.147-0.139,0.306-0.217,0.458-0.217c0.19,0,0.346,0.115,0.439,0.215c0.004,0.002,0.009,0.006,0.009,0.006
		c0.186,0.174,0.358,0.354,0.544,0.541c0.094,0.098,0.191,0.193,0.287,0.293l0.824,0.822c0.316,0.322,0.316,0.617,0,0.938
		c-0.087,0.086-0.175,0.174-0.259,0.26c-0.254,0.256-0.497,0.5-0.759,0.736c-0.006,0.004-0.013,0.008-0.014,0.014
		c-0.262,0.262-0.213,0.514-0.16,0.686c0,0,0.008,0.02,0.01,0.029c0.215,0.518,0.516,1.006,0.976,1.586l0.004,0.002
		c0.833,1.027,1.71,1.828,2.679,2.441c0.123,0.078,0.248,0.143,0.369,0.199c0.111,0.057,0.213,0.107,0.3,0.162
		c0.013,0.004,0.026,0.016,0.036,0.02c0.103,0.053,0.199,0.076,0.301,0.076c0.249,0,0.406-0.158,0.455-0.207l1.032-1.033
		c0.105-0.102,0.268-0.227,0.458-0.227c0.185,0,0.34,0.119,0.434,0.223l0.007,0.004l1.661,1.662
		C1200.053,5692.881,1200.053,5693.199,1199.746,5693.518"/>
	<path fill="#FFFFFF" d="M1195.095,5684.885c0.789,0.135,1.508,0.51,2.08,1.082c0.571,0.574,0.944,1.293,1.08,2.082
		c0.032,0.199,0.205,0.336,0.401,0.336c0.023,0,0.043-0.004,0.068-0.006c0.223-0.033,0.371-0.246,0.337-0.471
		c-0.164-0.955-0.616-1.826-1.307-2.518c-0.691-0.691-1.563-1.143-2.521-1.307c-0.223-0.037-0.432,0.111-0.47,0.33
		C1194.727,5684.637,1194.869,5684.85,1195.095,5684.885"/>
	<path fill="#FFFFFF" d="M1201.644,5687.793c-0.269-1.576-1.01-3.01-2.148-4.148c-1.139-1.143-2.571-1.885-4.148-2.154
		c-0.22-0.039-0.429,0.111-0.468,0.336c-0.035,0.219,0.113,0.43,0.334,0.469c1.406,0.24,2.688,0.906,3.709,1.922
		c1.02,1.02,1.682,2.301,1.921,3.709c0.034,0.201,0.205,0.336,0.401,0.336c0.026,0,0.045-0.004,0.071-0.006
		C1201.534,5688.225,1201.684,5688.012,1201.644,5687.793"/>
</g>
</svg>
