<?xml version="1.0" encoding="utf-8"?>
<!-- Generator: Adobe Illustrator 16.0.0, SVG Export Plug-In . SVG Version: 6.00 Build 0)  -->
<!DOCTYPE svg PUBLIC "-//W3C//DTD SVG 1.1//EN" "http://www.w3.org/Graphics/SVG/1.1/DTD/svg11.dtd">
<svg version="1.1" id="Layer_1" xmlns="http://www.w3.org/2000/svg" xmlns:xlink="http://www.w3.org/1999/xlink" x="0px" y="0px"
	 width="25px" height="25px" viewBox="0 0 25 25" enable-background="new 0 0 25 25" xml:space="preserve">
<g>
	<path fill="#EB2429" d="M25,12.5C25,19.404,19.404,25,12.499,25C5.596,25,0,19.404,0,12.5C0,5.596,5.596,0,12.499,0
		C19.404,0,25,5.596,25,12.5"/>
	<path fill="#FFFFFF" d="M18.293,19.729l-2.049-4.334c-0.04-0.086-0.111-0.152-0.196-0.191l-1.02-0.453l1.765-2.959
		c0.005-0.009,0.007-0.017,0.013-0.022c0.353-0.687,0.528-1.427,0.528-2.201c0-1.306-0.51-2.526-1.438-3.442
		c-0.93-0.916-2.158-1.408-3.463-1.394C11.165,4.75,9.97,5.26,9.069,6.168C8.172,7.073,7.673,8.271,7.665,9.537
		c-0.004,0.774,0.177,1.549,0.529,2.231c0.004,0.006,0.008,0.014,0.01,0.022l1.77,2.959l-1.025,0.457
		c-0.089,0.035-0.152,0.102-0.192,0.188l-2.048,4.334c-0.068,0.145-0.04,0.318,0.07,0.432c0.112,0.113,0.285,0.146,0.431,0.084
		L9.774,19.1l2.57,1.145c0.098,0.043,0.213,0.043,0.311,0l2.565-1.145l2.565,1.145c0.056,0.021,0.107,0.031,0.16,0.031
		c0.1,0,0.199-0.039,0.271-0.115C18.331,20.047,18.359,19.873,18.293,19.729 M8.871,11.407C8.577,10.83,8.427,10.198,8.43,9.541
		C8.444,7.342,10.243,5.53,12.442,5.5c1.099-0.017,2.134,0.399,2.914,1.17c0.782,0.771,1.21,1.799,1.21,2.897
		c0,0.649-0.148,1.267-0.44,1.84l-3.297,5.53c-0.1,0.17-0.264,0.186-0.328,0.186c-0.067,0-0.23-0.016-0.331-0.186L8.871,11.407z
		 M15.381,18.33c-0.104-0.045-0.215-0.045-0.314,0l-2.565,1.143l-2.57-1.143c-0.098-0.045-0.21-0.045-0.31,0l-1.779,0.789
		l1.548-3.27l0.978-0.434l1.146,1.916c0.21,0.352,0.578,0.561,0.988,0.561c0.407,0,0.777-0.209,0.986-0.561l1.144-1.916l0.979,0.436
		l1.548,3.268L15.381,18.33z"/>
	<path fill="#FFFFFF" d="M13.853,10.238c0-0.748-0.607-1.354-1.352-1.354c-0.746,0-1.352,0.606-1.352,1.354
		c0,0.741,0.605,1.352,1.352,1.352C13.245,11.59,13.853,10.979,13.853,10.238 M11.741,10.238c0-0.421,0.338-0.763,0.76-0.763
		c0.418,0,0.758,0.342,0.758,0.763c0,0.418-0.34,0.756-0.758,0.756C12.079,10.994,11.741,10.656,11.741,10.238"/>
</g>
</svg>
