<?xml version="1.0" encoding="utf-8"?>
<!-- Generator: Adobe Illustrator 16.0.0, SVG Export Plug-In . SVG Version: 6.00 Build 0)  -->
<!DOCTYPE svg PUBLIC "-//W3C//DTD SVG 1.1//EN" "http://www.w3.org/Graphics/SVG/1.1/DTD/svg11.dtd">
<svg version="1.1" id="Layer_1" xmlns="http://www.w3.org/2000/svg" xmlns:xlink="http://www.w3.org/1999/xlink" x="0px" y="0px"
	 width="80px" height="80px" viewBox="0 0 80 80" enable-background="new 0 0 80 80" xml:space="preserve">
<g>
	<path fill="#FFFFFF" d="M79.859,40.004c0,22.013-17.846,39.854-39.858,39.854c-22.016,0-39.86-17.842-39.86-39.854
		c0-22.019,17.844-39.862,39.86-39.862C62.014,0.142,79.859,17.985,79.859,40.004z"/>
	<g>
		<g>
			<path fill="#FAAC1A" d="M58.476,63.05l-6.536-13.818c-0.129-0.278-0.356-0.49-0.627-0.607l-3.25-1.447l5.63-9.436
				c0.012-0.025,0.02-0.052,0.039-0.07c1.125-2.191,1.686-4.55,1.686-7.019c0-4.162-1.629-8.059-4.589-10.98
				c-2.966-2.921-6.883-4.491-11.045-4.439c-4.038,0.058-7.852,1.68-10.722,4.576c-2.862,2.889-4.45,6.707-4.476,10.747
				c-0.014,2.469,0.562,4.937,1.683,7.116c0.014,0.018,0.027,0.044,0.035,0.07l5.641,9.436l-3.271,1.453
				c-0.278,0.117-0.485,0.331-0.613,0.602L21.534,63.05c-0.222,0.465-0.13,1.014,0.224,1.375c0.356,0.362,0.907,0.474,1.37,0.267
				l8.185-3.646l8.192,3.646c0.311,0.143,0.679,0.143,0.996,0l8.179-3.646l8.179,3.646c0.173,0.07,0.343,0.104,0.51,0.104
				c0.317,0,0.635-0.122,0.868-0.37C58.599,64.063,58.689,63.515,58.476,63.05z M28.429,36.521
				c-0.936-1.849-1.415-3.853-1.409-5.953c0.053-7.012,5.786-12.791,12.796-12.887c3.502-0.051,6.803,1.273,9.293,3.729
				c2.493,2.462,3.859,5.738,3.859,9.241c0,2.066-0.473,4.04-1.405,5.869L41.05,54.15c-0.317,0.541-0.841,0.594-1.045,0.594
				c-0.214,0-0.737-0.053-1.055-0.594L28.429,36.521z M49.188,58.59c-0.329-0.143-0.687-0.143-1,0l-8.183,3.646l-8.194-3.646
				c-0.31-0.143-0.673-0.143-0.988,0l-5.674,2.521l4.937-10.432l3.116-1.384l3.65,6.114c0.671,1.118,1.849,1.784,3.154,1.784
				c1.3,0,2.481-0.666,3.146-1.784l3.646-6.114l3.125,1.392l4.934,10.424L49.188,58.59z"/>
			<path fill="#FAAC1A" d="M44.315,32.785c0-2.378-1.938-4.311-4.311-4.311c-2.38,0-4.312,1.933-4.312,4.311
				c0,2.372,1.932,4.31,4.312,4.31C42.377,37.095,44.315,35.157,44.315,32.785z M37.58,32.785c0-1.339,1.08-2.425,2.425-2.425
				c1.333,0,2.417,1.086,2.417,2.425c0,1.337-1.084,2.417-2.417,2.417C38.66,35.201,37.58,34.122,37.58,32.785z"/>
		</g>
	</g>
</g>
</svg>
