<?xml version="1.0" encoding="utf-8"?>
<!-- Generator: Adobe Illustrator 16.0.0, SVG Export Plug-In . SVG Version: 6.00 Build 0)  -->
<!DOCTYPE svg PUBLIC "-//W3C//DTD SVG 1.1//EN" "http://www.w3.org/Graphics/SVG/1.1/DTD/svg11.dtd">
<svg version="1.1" id="Layer_1" xmlns="http://www.w3.org/2000/svg" xmlns:xlink="http://www.w3.org/1999/xlink" x="0px" y="0px"
	 width="80px" height="80px" viewBox="0 0 80 80" enable-background="new 0 0 80 80" xml:space="preserve">
<g>
	<path fill="#FFFFFF" d="M79.785,40.003c0,21.971-17.811,39.782-39.784,39.782c-21.976,0-39.786-17.811-39.786-39.782
		c0-21.979,17.811-39.789,39.786-39.789C61.975,0.214,79.785,18.025,79.785,40.003z"/>
	<g>
		<path fill="#FAAC1A" d="M63.845,30.236l-6.179-4.104V12.438c0-0.445-0.354-0.806-0.801-0.806H23.133
			c-0.438,0-0.799,0.361-0.799,0.806v13.693l-6.182,4.104c-0.216,0.142-0.36,0.387-0.36,0.665v24.829c0,0.444,0.36,0.806,0.8,0.806
			h46.816c0.437,0,0.798-0.361,0.798-0.806V30.901C64.206,30.623,64.066,30.378,63.845,30.236z M57.666,28.055l3.077,2.045h-3.077
			V28.055z M57.666,31.699h2.515l-2.515,1.336V31.699z M23.94,13.239h32.125v20.648l-13.425,7.122l-2.201-1.458
			c-0.262-0.181-0.618-0.181-0.882,0l-2.199,1.458L23.94,33.887V13.239z M22.334,28.061v2.04h-3.077L22.334,28.061z M22.334,31.699
			v1.336l-2.517-1.336H22.334z M17.4,32.235l18.437,9.78L17.4,54.239V32.235z M19.257,54.929l20.74-13.747l20.746,13.747H19.257z
			 M62.6,54.239L44.164,42.016l18.436-9.78V54.239z"/>
		<path fill="#FAAC1A" d="M46.389,32.719c0.44,0,0.802-0.355,0.802-0.8c0-0.439-0.361-0.8-0.802-0.8h-6.392
			c-3.077,0-5.586-2.508-5.586-5.587v-0.237c0-3.085,2.51-5.587,5.586-5.587c3.085,0,5.593,2.502,5.593,5.587v0.592
			c0,0.665-0.548,1.207-1.213,1.207c-0.664,0-1.208-0.542-1.208-1.207v-1.128c0-1.91-1.555-3.457-3.461-3.457
			c-1.911,0-3.466,1.547-3.466,3.457c0,1.917,1.555,3.463,3.466,3.463c0.871,0,1.67-0.322,2.277-0.856
			c0.495,0.8,1.386,1.334,2.393,1.334c1.546,0,2.813-1.265,2.813-2.813v-0.592c0-3.968-3.227-7.192-7.193-7.192
			c-3.961,0-7.187,3.225-7.187,7.192v0.237c0,3.963,3.226,7.188,7.187,7.188H46.389z M39.708,26.624
			c-1.025,0-1.867-0.839-1.867-1.865c0-1.026,0.841-1.857,1.867-1.857c1.026,0,1.857,0.831,1.857,1.857
			C41.564,25.784,40.733,26.624,39.708,26.624z"/>
	</g>
</g>
</svg>
