<?xml version="1.0" encoding="utf-8"?>
<!-- Generator: Adobe Illustrator 16.0.0, SVG Export Plug-In . SVG Version: 6.00 Build 0)  -->
<!DOCTYPE svg PUBLIC "-//W3C//DTD SVG 1.1//EN" "http://www.w3.org/Graphics/SVG/1.1/DTD/svg11.dtd">
<svg version="1.1" id="Layer_1" xmlns="http://www.w3.org/2000/svg" xmlns:xlink="http://www.w3.org/1999/xlink" x="0px" y="0px"
	 width="80px" height="80px" viewBox="0 0 80 80" enable-background="new 0 0 80 80" xml:space="preserve">
<g>
	<path fill="#FFFFFF" d="M79.997,40.004c0,22.088-17.904,39.992-39.996,39.992S0.003,62.092,0.003,40.004
		c0-22.095,17.906-40,39.998-40S79.997,17.909,79.997,40.004z"/>
	<g>
		<path fill="#FAAC1A" d="M53.278,46.158c-0.934-0.98-2.062-1.498-3.262-1.498c-1.18,0-2.328,0.512-3.295,1.498l-3.049,3.027
			c-0.252-0.123-0.506-0.258-0.744-0.383c-0.357-0.174-0.682-0.336-0.961-0.512c-2.859-1.816-5.455-4.184-7.939-7.238
			c-1.209-1.529-2.018-2.812-2.611-4.117c0.791-0.719,1.527-1.479,2.234-2.197c0.27-0.273,0.547-0.551,0.814-0.818
			c2.029-2.029,2.029-4.656,0-6.686l-2.633-2.633c-0.297-0.299-0.604-0.609-0.9-0.922c-0.58-0.596-1.189-1.212-1.811-1.789
			c-0.936-0.934-2.057-1.42-3.24-1.42c-1.17,0-2.312,0.486-3.275,1.42l-0.023,0.02l-3.281,3.307
			c-1.23,1.232-1.941,2.744-2.094,4.488c-0.23,2.822,0.598,5.447,1.24,7.166c1.562,4.223,3.896,8.133,7.381,12.314
			c4.227,5.047,9.311,9.033,15.127,11.85c2.217,1.043,5.182,2.295,8.496,2.502c0.193,0.014,0.416,0.02,0.609,0.02
			c2.23,0,4.105-0.797,5.564-2.393c0.006-0.02,0.033-0.02,0.039-0.045c0.502-0.609,1.082-1.154,1.691-1.752
			c0.416-0.389,0.838-0.803,1.252-1.244c0.953-0.992,1.459-2.154,1.459-3.34c0-1.193-0.506-2.342-1.484-3.309L53.278,46.158z
			 M56.741,56.32c-0.377,0.408-0.762,0.777-1.184,1.174c-0.625,0.596-1.264,1.232-1.859,1.932c-0.977,1.045-2.121,1.537-3.637,1.537
			c-0.135,0-0.293,0-0.436,0c-2.869-0.193-5.531-1.309-7.529-2.27c-5.465-2.646-10.264-6.395-14.25-11.16
			c-3.287-3.963-5.496-7.633-6.955-11.576c-0.896-2.4-1.219-4.273-1.076-6.037c0.096-1.129,0.525-2.07,1.334-2.867l3.291-3.295
			c0.471-0.44,0.977-0.687,1.465-0.687c0.609,0,1.107,0.37,1.406,0.681c0.018,0.006,0.027,0.02,0.027,0.02
			c0.6,0.557,1.146,1.135,1.744,1.73c0.301,0.318,0.609,0.623,0.918,0.941l2.635,2.633c1.016,1.025,1.016,1.971,0,2.996
			c-0.277,0.279-0.559,0.557-0.83,0.83c-0.811,0.824-1.588,1.602-2.422,2.359c-0.023,0.014-0.039,0.027-0.047,0.047
			c-0.834,0.83-0.684,1.641-0.512,2.191c0,0,0.025,0.059,0.031,0.092c0.688,1.652,1.646,3.215,3.117,5.076l0.014,0.008
			c2.666,3.287,5.473,5.842,8.574,7.807c0.395,0.254,0.797,0.455,1.184,0.643c0.352,0.176,0.678,0.338,0.957,0.514
			c0.039,0.018,0.084,0.051,0.119,0.064c0.32,0.168,0.633,0.246,0.957,0.246c0.797,0,1.303-0.506,1.459-0.668l3.303-3.301
			c0.336-0.324,0.854-0.727,1.463-0.727c0.594,0,1.09,0.383,1.391,0.707c0,0,0.01,0.012,0.016,0.02l5.322,5.318
			C57.722,54.283,57.722,55.301,56.741,56.32z"/>
		<path fill="#FAAC1A" d="M41.858,28.699c2.523,0.428,4.824,1.629,6.652,3.457c1.828,1.836,3.027,4.137,3.457,6.666
			c0.105,0.637,0.656,1.078,1.285,1.078c0.078,0,0.143-0.014,0.221-0.02c0.711-0.111,1.189-0.793,1.076-1.506
			c-0.525-3.061-1.973-5.848-4.184-8.061c-2.209-2.211-5-3.658-8.057-4.176c-0.717-0.123-1.387,0.355-1.506,1.051
			C40.679,27.902,41.142,28.59,41.858,28.699z"/>
		<path fill="#FAAC1A" d="M62.815,38c-0.861-5.039-3.23-9.625-6.877-13.275s-8.23-6.024-13.275-6.887
			c-0.701-0.123-1.369,0.356-1.498,1.07c-0.111,0.707,0.361,1.381,1.07,1.504c4.5,0.766,8.602,2.899,11.869,6.148
			c3.26,3.262,5.383,7.359,6.145,11.867c0.111,0.643,0.656,1.076,1.285,1.076c0.084,0,0.143-0.014,0.227-0.02
			C62.46,39.381,62.94,38.699,62.815,38z"/>
	</g>
</g>
</svg>
